<?xml version="1.0" encoding="UTF-8" standalone="no"?>
<!-- Created with Inkscape (http://www.inkscape.org/) -->

<svg
   width="297mm"
   height="210mm"
   viewBox="0 0 297 210"
   version="1.1"
   id="svg5"
   inkscape:version="1.1 (c68e22c387, 2021-05-23)"
   sodipodi:docname="bananoj.svg"
   xmlns:inkscape="http://www.inkscape.org/namespaces/inkscape"
   xmlns:sodipodi="http://sodipodi.sourceforge.net/DTD/sodipodi-0.dtd"
   xmlns="http://www.w3.org/2000/svg"
   xmlns:svg="http://www.w3.org/2000/svg">
  <sodipodi:namedview
     id="namedview7"
     pagecolor="#ffffff"
     bordercolor="#666666"
     borderopacity="1.0"
     inkscape:pageshadow="2"
     inkscape:pageopacity="0.0"
     inkscape:pagecheckerboard="0"
     inkscape:document-units="mm"
     showgrid="false"
     inkscape:zoom="0.74208053"
     inkscape:cx="558.56472"
     inkscape:cy="309.26563"
     inkscape:window-width="1920"
     inkscape:window-height="1051"
     inkscape:window-x="-9"
     inkscape:window-y="-9"
     inkscape:window-maximized="1"
     inkscape:current-layer="layer1" />
  <defs
     id="defs2" />
  <g
     inkscape:label="Layer 1"
     inkscape:groupmode="layer"
     id="layer1">
    <g
       id="g5207"
       transform="matrix(0.78017964,0.29116765,-0.29881042,0.76022474,-0.63307791,-75.055684)">
      <g
         id="g5187"
         transform="matrix(0.48341586,-0.20154969,0.20154979,0.48341561,76.894944,40.140071)">
        <g
           id="g5185"
           transform="rotate(-11.567563,93.317773,134.66324)">
          <path
             style="fill:#ffdd55;fill-opacity:1;stroke:none;stroke-width:0.264583px;stroke-linecap:butt;stroke-linejoin:miter;stroke-opacity:1"
             d="m 10.339736,77.72629 c 0,0 3.024321,-18.969649 10.518007,-22.462185 7.525364,-3.5073 24.066627,6.417767 24.066627,6.417767 0,0 18.896758,43.854748 18.896758,45.280918 0,1.42617 32.445382,22.81872 32.445382,22.81872 0,0 25.09909,9.37674 38.15005,8.91357 8.82842,-0.31332 25.31453,-7.84394 25.31453,-7.84394 0,0 26.25643,0.35462 31.65386,10.01611 6.86611,12.29047 -10.2613,40.96948 -10.2613,40.96948 0,0 -28.88884,9.51691 -43.85474,9.62665 -1.48371,0.0109 -2.97323,0.009 -4.46708,-0.008 C 110.96981,191.21589 88.21413,187.9266 69.169268,177.55784 54.849755,169.76213 43.887756,156.24739 34.941175,142.61705 26.98468,130.49513 23.568985,115.92766 18.540215,102.32773 15.542329,94.220168 10.339736,77.72629 10.339736,77.72629 Z"
             id="path5181"
             sodipodi:nodetypes="cacscscacssssac" />
          <path
             style="fill:#ffe786;fill-opacity:1;stroke:none;stroke-width:0.264583px;stroke-linecap:butt;stroke-linejoin:miter;stroke-opacity:1"
             d="m 29.949579,58.472987 10.518007,4.278514 c 0,0 6.937259,29.412361 15.153061,41.715489 7.474306,11.19274 18.234884,20.34344 29.771308,27.27551 12.050322,7.24087 25.805555,12.33206 39.754505,14.08343 9.76866,1.22651 29.41476,-2.67407 29.41476,-2.67407 0,0 13.90516,-5.52641 14.61825,-5.52641 0.71308,0 8.39328,3.77776 7.84394,7.30912 -1.50401,9.66837 -16.66604,10.37121 -26.53961,12.54208 -0.1884,0.0414 -0.37434,0.0799 -0.55763,0.11518 -17.64964,3.40129 -36.76927,2.60316 -53.837937,-3.03061 C 88.998308,152.22108 83.315856,146.7757 77.369746,142.2605 67.005422,134.39031 56.85304,126.08595 47.954982,116.58944 42.534665,110.80457 36.393355,105.07912 33.515006,97.692677 28.748722,85.461391 29.949579,58.472987 29.949579,58.472987 Z"
             id="path5183"
             sodipodi:nodetypes="ccasscssssaaaac" />
        </g>
      </g>
      <g
         id="g5193"
         transform="matrix(0.48341561,-0.20154969,0.20154969,0.48341561,63.40995,54.866715)">
        <path
           style="fill:#ffdd55;fill-opacity:1;stroke:none;stroke-width:0.264583px;stroke-linecap:butt;stroke-linejoin:miter;stroke-opacity:1"
           d="m 10.339736,77.72629 c 0,0 3.024321,-18.969649 10.518007,-22.462185 7.525364,-3.5073 24.066627,6.417767 24.066627,6.417767 0,0 18.896758,43.854748 18.896758,45.280918 0,1.42617 32.445382,22.81872 32.445382,22.81872 0,0 25.09909,9.37674 38.15005,8.91357 8.82842,-0.31332 25.31453,-7.84394 25.31453,-7.84394 0,0 26.25643,0.35462 31.65386,10.01611 6.86611,12.29047 -10.2613,40.96948 -10.2613,40.96948 0,0 -28.88884,9.51691 -43.85474,9.62665 -1.48371,0.0109 -2.97323,0.009 -4.46708,-0.008 C 110.96981,191.21589 88.21413,187.9266 69.169268,177.55784 54.849755,169.76213 43.887756,156.24739 34.941175,142.61705 26.98468,130.49513 23.568985,115.92766 18.540215,102.32773 15.542329,94.220168 10.339736,77.72629 10.339736,77.72629 Z"
           id="path5189"
           sodipodi:nodetypes="cacscscacssssac" />
        <path
           style="fill:#ffe786;fill-opacity:1;stroke:none;stroke-width:0.264583px;stroke-linecap:butt;stroke-linejoin:miter;stroke-opacity:1"
           d="m 29.949579,58.472987 10.518007,4.278514 c 0,0 6.937259,29.412361 15.153061,41.715489 7.474306,11.19274 18.234884,20.34344 29.771308,27.27551 12.050322,7.24087 25.805555,12.33206 39.754505,14.08343 9.76866,1.22651 29.41476,-2.67407 29.41476,-2.67407 0,0 13.90516,-5.52641 14.61825,-5.52641 0.71308,0 8.39328,3.77776 7.84394,7.30912 -1.50401,9.66837 -16.66604,10.37121 -26.53961,12.54208 -0.1884,0.0414 -0.37434,0.0799 -0.55763,0.11518 -17.64964,3.40129 -36.76927,2.60316 -53.837937,-3.03061 C 88.998308,152.22108 83.315856,146.7757 77.369746,142.2605 67.005422,134.39031 56.85304,126.08595 47.954982,116.58944 42.534665,110.80457 36.393355,105.07912 33.515006,97.692677 28.748722,85.461391 29.949579,58.472987 29.949579,58.472987 Z"
           id="path5191"
           sodipodi:nodetypes="ccasscssssaaaac" />
      </g>
      <g
         id="g5199"
         transform="matrix(0.52374892,0,0,0.52374892,72.912126,53.888446)">
        <path
           style="fill:#ffdd55;fill-opacity:1;stroke:none;stroke-width:0.264583px;stroke-linecap:butt;stroke-linejoin:miter;stroke-opacity:1"
           d="m 10.339736,77.72629 c 0,0 3.024321,-18.969649 10.518007,-22.462185 7.525364,-3.5073 24.066627,6.417767 24.066627,6.417767 0,0 18.896758,43.854748 18.896758,45.280918 0,1.42617 32.445382,22.81872 32.445382,22.81872 0,0 25.09909,9.37674 38.15005,8.91357 8.82842,-0.31332 25.31453,-7.84394 25.31453,-7.84394 0,0 26.25643,0.35462 31.65386,10.01611 6.86611,12.29047 -10.2613,40.96948 -10.2613,40.96948 0,0 -28.88884,9.51691 -43.85474,9.62665 -1.48371,0.0109 -2.97323,0.009 -4.46708,-0.008 C 110.96981,191.21589 88.21413,187.9266 69.169268,177.55784 54.849755,169.76213 43.887756,156.24739 34.941175,142.61705 26.98468,130.49513 23.568985,115.92766 18.540215,102.32773 15.542329,94.220168 10.339736,77.72629 10.339736,77.72629 Z"
           id="path5195"
           sodipodi:nodetypes="cacscscacssssac" />
        <path
           style="fill:#ffe786;fill-opacity:1;stroke:none;stroke-width:0.264583px;stroke-linecap:butt;stroke-linejoin:miter;stroke-opacity:1"
           d="m 29.949579,58.472987 10.518007,4.278514 c 0,0 6.937259,29.412361 15.153061,41.715489 7.474306,11.19274 18.234884,20.34344 29.771308,27.27551 12.050322,7.24087 25.805555,12.33206 39.754505,14.08343 9.76866,1.22651 29.41476,-2.67407 29.41476,-2.67407 0,0 13.90516,-5.52641 14.61825,-5.52641 0.71308,0 8.39328,3.77776 7.84394,7.30912 -1.50401,9.66837 -16.66604,10.37121 -26.53961,12.54208 -0.1884,0.0414 -0.37434,0.0799 -0.55763,0.11518 -17.64964,3.40129 -36.76927,2.60316 -53.837937,-3.03061 C 88.998308,152.22108 83.315856,146.7757 77.369746,142.2605 67.005422,134.39031 56.85304,126.08595 47.954982,116.58944 42.534665,110.80457 36.393355,105.07912 33.515006,97.692677 28.748722,85.461391 29.949579,58.472987 29.949579,58.472987 Z"
           id="path5197"
           sodipodi:nodetypes="ccasscssssaaaac" />
      </g>
      <g
         id="g5205"
         transform="matrix(0.50400772,0.14243999,-0.14243999,0.50400772,71.561624,60.860652)">
        <path
           style="fill:#ffdd55;fill-opacity:1;stroke:none;stroke-width:0.264583px;stroke-linecap:butt;stroke-linejoin:miter;stroke-opacity:1"
           d="m 10.339736,77.72629 c 0,0 3.024321,-18.969649 10.518007,-22.462185 7.525364,-3.5073 24.066627,6.417767 24.066627,6.417767 0,0 18.896758,43.854748 18.896758,45.280918 0,1.42617 32.445382,22.81872 32.445382,22.81872 0,0 25.09909,9.37674 38.15005,8.91357 8.82842,-0.31332 25.31453,-7.84394 25.31453,-7.84394 0,0 26.25643,0.35462 31.65386,10.01611 6.86611,12.29047 -10.2613,40.96948 -10.2613,40.96948 0,0 -28.88884,9.51691 -43.85474,9.62665 -1.48371,0.0109 -2.97323,0.009 -4.46708,-0.008 C 110.96981,191.21589 88.21413,187.9266 69.169268,177.55784 54.849755,169.76213 43.887756,156.24739 34.941175,142.61705 26.98468,130.49513 23.568985,115.92766 18.540215,102.32773 15.542329,94.220168 10.339736,77.72629 10.339736,77.72629 Z"
           id="path5201"
           sodipodi:nodetypes="cacscscacssssac" />
        <path
           style="fill:#ffe786;fill-opacity:1;stroke:none;stroke-width:0.264583px;stroke-linecap:butt;stroke-linejoin:miter;stroke-opacity:1"
           d="m 29.949579,58.472987 10.518007,4.278514 c 0,0 6.937259,29.412361 15.153061,41.715489 7.474306,11.19274 18.234884,20.34344 29.771308,27.27551 12.050322,7.24087 25.805555,12.33206 39.754505,14.08343 9.76866,1.22651 29.41476,-2.67407 29.41476,-2.67407 0,0 13.90516,-5.52641 14.61825,-5.52641 0.71308,0 8.39328,3.77776 7.84394,7.30912 -1.50401,9.66837 -16.66604,10.37121 -26.53961,12.54208 -0.1884,0.0414 -0.37434,0.0799 -0.55763,0.11518 -17.64964,3.40129 -36.76927,2.60316 -53.837937,-3.03061 C 88.998308,152.22108 83.315856,146.7757 77.369746,142.2605 67.005422,134.39031 56.85304,126.08595 47.954982,116.58944 42.534665,110.80457 36.393355,105.07912 33.515006,97.692677 28.748722,85.461391 29.949579,58.472987 29.949579,58.472987 Z"
           id="path5203"
           sodipodi:nodetypes="ccasscssssaaaac" />
      </g>
    </g>
    <g
       id="g5151"
       transform="rotate(20.956944,27.890893,-3.9794756)">
      <g
         id="g5132"
         transform="matrix(0.48341586,-0.20154969,0.20154979,0.48341561,76.894944,40.140071)">
        <g
           id="g5136"
           transform="rotate(-11.567563,93.317773,134.66324)">
          <path
             style="fill:#ffdd55;fill-opacity:1;stroke:none;stroke-width:0.264583px;stroke-linecap:butt;stroke-linejoin:miter;stroke-opacity:1"
             d="m 10.339736,77.72629 c 0,0 3.024321,-18.969649 10.518007,-22.462185 7.525364,-3.5073 24.066627,6.417767 24.066627,6.417767 0,0 18.896758,43.854748 18.896758,45.280918 0,1.42617 32.445382,22.81872 32.445382,22.81872 0,0 25.09909,9.37674 38.15005,8.91357 8.82842,-0.31332 25.31453,-7.84394 25.31453,-7.84394 0,0 26.25643,0.35462 31.65386,10.01611 6.86611,12.29047 -10.2613,40.96948 -10.2613,40.96948 0,0 -28.88884,9.51691 -43.85474,9.62665 -1.48371,0.0109 -2.97323,0.009 -4.46708,-0.008 C 110.96981,191.21589 88.21413,187.9266 69.169268,177.55784 54.849755,169.76213 43.887756,156.24739 34.941175,142.61705 26.98468,130.49513 23.568985,115.92766 18.540215,102.32773 15.542329,94.220168 10.339736,77.72629 10.339736,77.72629 Z"
             id="path5128"
             sodipodi:nodetypes="cacscscacssssac" />
          <path
             style="fill:#ffe786;fill-opacity:1;stroke:none;stroke-width:0.264583px;stroke-linecap:butt;stroke-linejoin:miter;stroke-opacity:1"
             d="m 29.949579,58.472987 10.518007,4.278514 c 0,0 6.937259,29.412361 15.153061,41.715489 7.474306,11.19274 18.234884,20.34344 29.771308,27.27551 12.050322,7.24087 25.805555,12.33206 39.754505,14.08343 9.76866,1.22651 29.41476,-2.67407 29.41476,-2.67407 0,0 13.90516,-5.52641 14.61825,-5.52641 0.71308,0 8.39328,3.77776 7.84394,7.30912 -1.50401,9.66837 -16.66604,10.37121 -26.53961,12.54208 -0.1884,0.0414 -0.37434,0.0799 -0.55763,0.11518 -17.64964,3.40129 -36.76927,2.60316 -53.837937,-3.03061 C 88.998308,152.22108 83.315856,146.7757 77.369746,142.2605 67.005422,134.39031 56.85304,126.08595 47.954982,116.58944 42.534665,110.80457 36.393355,105.07912 33.515006,97.692677 28.748722,85.461391 29.949579,58.472987 29.949579,58.472987 Z"
             id="path5130"
             sodipodi:nodetypes="ccasscssssaaaac" />
        </g>
      </g>
      <g
         id="g5126"
         transform="matrix(0.48341561,-0.20154969,0.20154969,0.48341561,63.40995,54.866715)">
        <path
           style="fill:#ffdd55;fill-opacity:1;stroke:none;stroke-width:0.264583px;stroke-linecap:butt;stroke-linejoin:miter;stroke-opacity:1"
           d="m 10.339736,77.72629 c 0,0 3.024321,-18.969649 10.518007,-22.462185 7.525364,-3.5073 24.066627,6.417767 24.066627,6.417767 0,0 18.896758,43.854748 18.896758,45.280918 0,1.42617 32.445382,22.81872 32.445382,22.81872 0,0 25.09909,9.37674 38.15005,8.91357 8.82842,-0.31332 25.31453,-7.84394 25.31453,-7.84394 0,0 26.25643,0.35462 31.65386,10.01611 6.86611,12.29047 -10.2613,40.96948 -10.2613,40.96948 0,0 -28.88884,9.51691 -43.85474,9.62665 -1.48371,0.0109 -2.97323,0.009 -4.46708,-0.008 C 110.96981,191.21589 88.21413,187.9266 69.169268,177.55784 54.849755,169.76213 43.887756,156.24739 34.941175,142.61705 26.98468,130.49513 23.568985,115.92766 18.540215,102.32773 15.542329,94.220168 10.339736,77.72629 10.339736,77.72629 Z"
           id="path5122"
           sodipodi:nodetypes="cacscscacssssac" />
        <path
           style="fill:#ffe786;fill-opacity:1;stroke:none;stroke-width:0.264583px;stroke-linecap:butt;stroke-linejoin:miter;stroke-opacity:1"
           d="m 29.949579,58.472987 10.518007,4.278514 c 0,0 6.937259,29.412361 15.153061,41.715489 7.474306,11.19274 18.234884,20.34344 29.771308,27.27551 12.050322,7.24087 25.805555,12.33206 39.754505,14.08343 9.76866,1.22651 29.41476,-2.67407 29.41476,-2.67407 0,0 13.90516,-5.52641 14.61825,-5.52641 0.71308,0 8.39328,3.77776 7.84394,7.30912 -1.50401,9.66837 -16.66604,10.37121 -26.53961,12.54208 -0.1884,0.0414 -0.37434,0.0799 -0.55763,0.11518 -17.64964,3.40129 -36.76927,2.60316 -53.837937,-3.03061 C 88.998308,152.22108 83.315856,146.7757 77.369746,142.2605 67.005422,134.39031 56.85304,126.08595 47.954982,116.58944 42.534665,110.80457 36.393355,105.07912 33.515006,97.692677 28.748722,85.461391 29.949579,58.472987 29.949579,58.472987 Z"
           id="path5124"
           sodipodi:nodetypes="ccasscssssaaaac" />
      </g>
      <g
         id="g5034"
         transform="matrix(0.52374892,0,0,0.52374892,72.912126,53.888446)">
        <path
           style="fill:#ffdd55;fill-opacity:1;stroke:none;stroke-width:0.264583px;stroke-linecap:butt;stroke-linejoin:miter;stroke-opacity:1"
           d="m 10.339736,77.72629 c 0,0 3.024321,-18.969649 10.518007,-22.462185 7.525364,-3.5073 24.066627,6.417767 24.066627,6.417767 0,0 18.896758,43.854748 18.896758,45.280918 0,1.42617 32.445382,22.81872 32.445382,22.81872 0,0 25.09909,9.37674 38.15005,8.91357 8.82842,-0.31332 25.31453,-7.84394 25.31453,-7.84394 0,0 26.25643,0.35462 31.65386,10.01611 6.86611,12.29047 -10.2613,40.96948 -10.2613,40.96948 0,0 -28.88884,9.51691 -43.85474,9.62665 -1.48371,0.0109 -2.97323,0.009 -4.46708,-0.008 C 110.96981,191.21589 88.21413,187.9266 69.169268,177.55784 54.849755,169.76213 43.887756,156.24739 34.941175,142.61705 26.98468,130.49513 23.568985,115.92766 18.540215,102.32773 15.542329,94.220168 10.339736,77.72629 10.339736,77.72629 Z"
           id="path968"
           sodipodi:nodetypes="cacscscacssssac" />
        <path
           style="fill:#ffe786;fill-opacity:1;stroke:none;stroke-width:0.264583px;stroke-linecap:butt;stroke-linejoin:miter;stroke-opacity:1"
           d="m 29.949579,58.472987 10.518007,4.278514 c 0,0 6.937259,29.412361 15.153061,41.715489 7.474306,11.19274 18.234884,20.34344 29.771308,27.27551 12.050322,7.24087 25.805555,12.33206 39.754505,14.08343 9.76866,1.22651 29.41476,-2.67407 29.41476,-2.67407 0,0 13.90516,-5.52641 14.61825,-5.52641 0.71308,0 8.39328,3.77776 7.84394,7.30912 -1.50401,9.66837 -16.66604,10.37121 -26.53961,12.54208 -0.1884,0.0414 -0.37434,0.0799 -0.55763,0.11518 -17.64964,3.40129 -36.76927,2.60316 -53.837937,-3.03061 C 88.998308,152.22108 83.315856,146.7757 77.369746,142.2605 67.005422,134.39031 56.85304,126.08595 47.954982,116.58944 42.534665,110.80457 36.393355,105.07912 33.515006,97.692677 28.748722,85.461391 29.949579,58.472987 29.949579,58.472987 Z"
           id="path2653"
           sodipodi:nodetypes="ccasscssssaaaac" />
      </g>
      <g
         id="g5120"
         transform="matrix(0.50400772,0.14243999,-0.14243999,0.50400772,71.561624,60.860652)">
        <path
           style="fill:#ffdd55;fill-opacity:1;stroke:none;stroke-width:0.264583px;stroke-linecap:butt;stroke-linejoin:miter;stroke-opacity:1"
           d="m 10.339736,77.72629 c 0,0 3.024321,-18.969649 10.518007,-22.462185 7.525364,-3.5073 24.066627,6.417767 24.066627,6.417767 0,0 18.896758,43.854748 18.896758,45.280918 0,1.42617 32.445382,22.81872 32.445382,22.81872 0,0 25.09909,9.37674 38.15005,8.91357 8.82842,-0.31332 25.31453,-7.84394 25.31453,-7.84394 0,0 26.25643,0.35462 31.65386,10.01611 6.86611,12.29047 -10.2613,40.96948 -10.2613,40.96948 0,0 -28.88884,9.51691 -43.85474,9.62665 -1.48371,0.0109 -2.97323,0.009 -4.46708,-0.008 C 110.96981,191.21589 88.21413,187.9266 69.169268,177.55784 54.849755,169.76213 43.887756,156.24739 34.941175,142.61705 26.98468,130.49513 23.568985,115.92766 18.540215,102.32773 15.542329,94.220168 10.339736,77.72629 10.339736,77.72629 Z"
           id="path5116"
           sodipodi:nodetypes="cacscscacssssac" />
        <path
           style="fill:#ffe786;fill-opacity:1;stroke:none;stroke-width:0.264583px;stroke-linecap:butt;stroke-linejoin:miter;stroke-opacity:1"
           d="m 29.949579,58.472987 10.518007,4.278514 c 0,0 6.937259,29.412361 15.153061,41.715489 7.474306,11.19274 18.234884,20.34344 29.771308,27.27551 12.050322,7.24087 25.805555,12.33206 39.754505,14.08343 9.76866,1.22651 29.41476,-2.67407 29.41476,-2.67407 0,0 13.90516,-5.52641 14.61825,-5.52641 0.71308,0 8.39328,3.77776 7.84394,7.30912 -1.50401,9.66837 -16.66604,10.37121 -26.53961,12.54208 -0.1884,0.0414 -0.37434,0.0799 -0.55763,0.11518 -17.64964,3.40129 -36.76927,2.60316 -53.837937,-3.03061 C 88.998308,152.22108 83.315856,146.7757 77.369746,142.2605 67.005422,134.39031 56.85304,126.08595 47.954982,116.58944 42.534665,110.80457 36.393355,105.07912 33.515006,97.692677 28.748722,85.461391 29.949579,58.472987 29.949579,58.472987 Z"
           id="path5118"
           sodipodi:nodetypes="ccasscssssaaaac" />
      </g>
    </g>
    <g
       id="g5179"
       transform="matrix(0.8383178,0.3253184,-0.32107745,0.84939072,149.55033,14.242307)">
      <g
         id="g5159"
         transform="matrix(0.48341586,-0.20154969,0.20154979,0.48341561,76.894944,40.140071)">
        <g
           id="g5157"
           transform="rotate(-11.567563,93.317773,134.66324)">
          <path
             style="fill:#ffdd55;fill-opacity:1;stroke:none;stroke-width:0.264583px;stroke-linecap:butt;stroke-linejoin:miter;stroke-opacity:1"
             d="m 10.339736,77.72629 c 0,0 3.024321,-18.969649 10.518007,-22.462185 7.525364,-3.5073 24.066627,6.417767 24.066627,6.417767 0,0 18.896758,43.854748 18.896758,45.280918 0,1.42617 32.445382,22.81872 32.445382,22.81872 0,0 25.09909,9.37674 38.15005,8.91357 8.82842,-0.31332 25.31453,-7.84394 25.31453,-7.84394 0,0 26.25643,0.35462 31.65386,10.01611 6.86611,12.29047 -10.2613,40.96948 -10.2613,40.96948 0,0 -28.88884,9.51691 -43.85474,9.62665 -1.48371,0.0109 -2.97323,0.009 -4.46708,-0.008 C 110.96981,191.21589 88.21413,187.9266 69.169268,177.55784 54.849755,169.76213 43.887756,156.24739 34.941175,142.61705 26.98468,130.49513 23.568985,115.92766 18.540215,102.32773 15.542329,94.220168 10.339736,77.72629 10.339736,77.72629 Z"
             id="path5153"
             sodipodi:nodetypes="cacscscacssssac" />
          <path
             style="fill:#ffe786;fill-opacity:1;stroke:none;stroke-width:0.264583px;stroke-linecap:butt;stroke-linejoin:miter;stroke-opacity:1"
             d="m 29.949579,58.472987 10.518007,4.278514 c 0,0 6.937259,29.412361 15.153061,41.715489 7.474306,11.19274 18.234884,20.34344 29.771308,27.27551 12.050322,7.24087 25.805555,12.33206 39.754505,14.08343 9.76866,1.22651 29.41476,-2.67407 29.41476,-2.67407 0,0 13.90516,-5.52641 14.61825,-5.52641 0.71308,0 8.39328,3.77776 7.84394,7.30912 -1.50401,9.66837 -16.66604,10.37121 -26.53961,12.54208 -0.1884,0.0414 -0.37434,0.0799 -0.55763,0.11518 -17.64964,3.40129 -36.76927,2.60316 -53.837937,-3.03061 C 88.998308,152.22108 83.315856,146.7757 77.369746,142.2605 67.005422,134.39031 56.85304,126.08595 47.954982,116.58944 42.534665,110.80457 36.393355,105.07912 33.515006,97.692677 28.748722,85.461391 29.949579,58.472987 29.949579,58.472987 Z"
             id="path5155"
             sodipodi:nodetypes="ccasscssssaaaac" />
        </g>
      </g>
      <g
         id="g5165"
         transform="matrix(0.48341561,-0.20154969,0.20154969,0.48341561,63.40995,54.866715)">
        <path
           style="fill:#ffdd55;fill-opacity:1;stroke:none;stroke-width:0.264583px;stroke-linecap:butt;stroke-linejoin:miter;stroke-opacity:1"
           d="m 10.339736,77.72629 c 0,0 3.024321,-18.969649 10.518007,-22.462185 7.525364,-3.5073 24.066627,6.417767 24.066627,6.417767 0,0 18.896758,43.854748 18.896758,45.280918 0,1.42617 32.445382,22.81872 32.445382,22.81872 0,0 25.09909,9.37674 38.15005,8.91357 8.82842,-0.31332 25.31453,-7.84394 25.31453,-7.84394 0,0 26.25643,0.35462 31.65386,10.01611 6.86611,12.29047 -10.2613,40.96948 -10.2613,40.96948 0,0 -28.88884,9.51691 -43.85474,9.62665 -1.48371,0.0109 -2.97323,0.009 -4.46708,-0.008 C 110.96981,191.21589 88.21413,187.9266 69.169268,177.55784 54.849755,169.76213 43.887756,156.24739 34.941175,142.61705 26.98468,130.49513 23.568985,115.92766 18.540215,102.32773 15.542329,94.220168 10.339736,77.72629 10.339736,77.72629 Z"
           id="path5161"
           sodipodi:nodetypes="cacscscacssssac" />
        <path
           style="fill:#ffe786;fill-opacity:1;stroke:none;stroke-width:0.264583px;stroke-linecap:butt;stroke-linejoin:miter;stroke-opacity:1"
           d="m 29.949579,58.472987 10.518007,4.278514 c 0,0 6.937259,29.412361 15.153061,41.715489 7.474306,11.19274 18.234884,20.34344 29.771308,27.27551 12.050322,7.24087 25.805555,12.33206 39.754505,14.08343 9.76866,1.22651 29.41476,-2.67407 29.41476,-2.67407 0,0 13.90516,-5.52641 14.61825,-5.52641 0.71308,0 8.39328,3.77776 7.84394,7.30912 -1.50401,9.66837 -16.66604,10.37121 -26.53961,12.54208 -0.1884,0.0414 -0.37434,0.0799 -0.55763,0.11518 -17.64964,3.40129 -36.76927,2.60316 -53.837937,-3.03061 C 88.998308,152.22108 83.315856,146.7757 77.369746,142.2605 67.005422,134.39031 56.85304,126.08595 47.954982,116.58944 42.534665,110.80457 36.393355,105.07912 33.515006,97.692677 28.748722,85.461391 29.949579,58.472987 29.949579,58.472987 Z"
           id="path5163"
           sodipodi:nodetypes="ccasscssssaaaac" />
      </g>
      <g
         id="g5171"
         transform="matrix(0.52374892,0,0,0.52374892,72.912126,53.888446)">
        <path
           style="fill:#ffdd55;fill-opacity:1;stroke:none;stroke-width:0.264583px;stroke-linecap:butt;stroke-linejoin:miter;stroke-opacity:1"
           d="m 10.339736,77.72629 c 0,0 3.024321,-18.969649 10.518007,-22.462185 7.525364,-3.5073 24.066627,6.417767 24.066627,6.417767 0,0 18.896758,43.854748 18.896758,45.280918 0,1.42617 32.445382,22.81872 32.445382,22.81872 0,0 25.09909,9.37674 38.15005,8.91357 8.82842,-0.31332 25.31453,-7.84394 25.31453,-7.84394 0,0 26.25643,0.35462 31.65386,10.01611 6.86611,12.29047 -10.2613,40.96948 -10.2613,40.96948 0,0 -28.88884,9.51691 -43.85474,9.62665 -1.48371,0.0109 -2.97323,0.009 -4.46708,-0.008 C 110.96981,191.21589 88.21413,187.9266 69.169268,177.55784 54.849755,169.76213 43.887756,156.24739 34.941175,142.61705 26.98468,130.49513 23.568985,115.92766 18.540215,102.32773 15.542329,94.220168 10.339736,77.72629 10.339736,77.72629 Z"
           id="path5167"
           sodipodi:nodetypes="cacscscacssssac" />
        <path
           style="fill:#ffe786;fill-opacity:1;stroke:none;stroke-width:0.264583px;stroke-linecap:butt;stroke-linejoin:miter;stroke-opacity:1"
           d="m 29.949579,58.472987 10.518007,4.278514 c 0,0 6.937259,29.412361 15.153061,41.715489 7.474306,11.19274 18.234884,20.34344 29.771308,27.27551 12.050322,7.24087 25.805555,12.33206 39.754505,14.08343 9.76866,1.22651 29.41476,-2.67407 29.41476,-2.67407 0,0 13.90516,-5.52641 14.61825,-5.52641 0.71308,0 8.39328,3.77776 7.84394,7.30912 -1.50401,9.66837 -16.66604,10.37121 -26.53961,12.54208 -0.1884,0.0414 -0.37434,0.0799 -0.55763,0.11518 -17.64964,3.40129 -36.76927,2.60316 -53.837937,-3.03061 C 88.998308,152.22108 83.315856,146.7757 77.369746,142.2605 67.005422,134.39031 56.85304,126.08595 47.954982,116.58944 42.534665,110.80457 36.393355,105.07912 33.515006,97.692677 28.748722,85.461391 29.949579,58.472987 29.949579,58.472987 Z"
           id="path5169"
           sodipodi:nodetypes="ccasscssssaaaac" />
      </g>
      <g
         id="g5177"
         transform="matrix(0.50400772,0.14243999,-0.14243999,0.50400772,71.561624,60.860652)">
        <path
           style="fill:#ffdd55;fill-opacity:1;stroke:none;stroke-width:0.264583px;stroke-linecap:butt;stroke-linejoin:miter;stroke-opacity:1"
           d="m 10.339736,77.72629 c 0,0 3.024321,-18.969649 10.518007,-22.462185 7.525364,-3.5073 24.066627,6.417767 24.066627,6.417767 0,0 18.896758,43.854748 18.896758,45.280918 0,1.42617 32.445382,22.81872 32.445382,22.81872 0,0 25.09909,9.37674 38.15005,8.91357 8.82842,-0.31332 25.31453,-7.84394 25.31453,-7.84394 0,0 26.25643,0.35462 31.65386,10.01611 6.86611,12.29047 -10.2613,40.96948 -10.2613,40.96948 0,0 -28.88884,9.51691 -43.85474,9.62665 -1.48371,0.0109 -2.97323,0.009 -4.46708,-0.008 C 110.96981,191.21589 88.21413,187.9266 69.169268,177.55784 54.849755,169.76213 43.887756,156.24739 34.941175,142.61705 26.98468,130.49513 23.568985,115.92766 18.540215,102.32773 15.542329,94.220168 10.339736,77.72629 10.339736,77.72629 Z"
           id="path5173"
           sodipodi:nodetypes="cacscscacssssac" />
        <path
           style="fill:#ffe786;fill-opacity:1;stroke:none;stroke-width:0.264583px;stroke-linecap:butt;stroke-linejoin:miter;stroke-opacity:1"
           d="m 29.949579,58.472987 10.518007,4.278514 c 0,0 6.937259,29.412361 15.153061,41.715489 7.474306,11.19274 18.234884,20.34344 29.771308,27.27551 12.050322,7.24087 25.805555,12.33206 39.754505,14.08343 9.76866,1.22651 29.41476,-2.67407 29.41476,-2.67407 0,0 13.90516,-5.52641 14.61825,-5.52641 0.71308,0 8.39328,3.77776 7.84394,7.30912 -1.50401,9.66837 -16.66604,10.37121 -26.53961,12.54208 -0.1884,0.0414 -0.37434,0.0799 -0.55763,0.11518 -17.64964,3.40129 -36.76927,2.60316 -53.837937,-3.03061 C 88.998308,152.22108 83.315856,146.7757 77.369746,142.2605 67.005422,134.39031 56.85304,126.08595 47.954982,116.58944 42.534665,110.80457 36.393355,105.07912 33.515006,97.692677 28.748722,85.461391 29.949579,58.472987 29.949579,58.472987 Z"
           id="path5175"
           sodipodi:nodetypes="ccasscssssaaaac" />
      </g>
    </g>
    <g
       id="g5281"
       transform="matrix(0.56797365,0.21197112,-0.21753509,0.55344641,125.03747,-55.863219)">
      <g
         id="g5261"
         transform="matrix(0.48341586,-0.20154969,0.20154979,0.48341561,76.894944,40.140071)">
        <g
           id="g5259"
           transform="rotate(-11.567563,93.317773,134.66324)">
          <path
             style="fill:#ffdd55;fill-opacity:1;stroke:none;stroke-width:0.264583px;stroke-linecap:butt;stroke-linejoin:miter;stroke-opacity:1"
             d="m 10.339736,77.72629 c 0,0 3.024321,-18.969649 10.518007,-22.462185 7.525364,-3.5073 24.066627,6.417767 24.066627,6.417767 0,0 18.896758,43.854748 18.896758,45.280918 0,1.42617 32.445382,22.81872 32.445382,22.81872 0,0 25.09909,9.37674 38.15005,8.91357 8.82842,-0.31332 25.31453,-7.84394 25.31453,-7.84394 0,0 26.25643,0.35462 31.65386,10.01611 6.86611,12.29047 -10.2613,40.96948 -10.2613,40.96948 0,0 -28.88884,9.51691 -43.85474,9.62665 -1.48371,0.0109 -2.97323,0.009 -4.46708,-0.008 C 110.96981,191.21589 88.21413,187.9266 69.169268,177.55784 54.849755,169.76213 43.887756,156.24739 34.941175,142.61705 26.98468,130.49513 23.568985,115.92766 18.540215,102.32773 15.542329,94.220168 10.339736,77.72629 10.339736,77.72629 Z"
             id="path5255"
             sodipodi:nodetypes="cacscscacssssac" />
          <path
             style="fill:#ffe786;fill-opacity:1;stroke:none;stroke-width:0.264583px;stroke-linecap:butt;stroke-linejoin:miter;stroke-opacity:1"
             d="m 29.949579,58.472987 10.518007,4.278514 c 0,0 6.937259,29.412361 15.153061,41.715489 7.474306,11.19274 18.234884,20.34344 29.771308,27.27551 12.050322,7.24087 25.805555,12.33206 39.754505,14.08343 9.76866,1.22651 29.41476,-2.67407 29.41476,-2.67407 0,0 13.90516,-5.52641 14.61825,-5.52641 0.71308,0 8.39328,3.77776 7.84394,7.30912 -1.50401,9.66837 -16.66604,10.37121 -26.53961,12.54208 -0.1884,0.0414 -0.37434,0.0799 -0.55763,0.11518 -17.64964,3.40129 -36.76927,2.60316 -53.837937,-3.03061 C 88.998308,152.22108 83.315856,146.7757 77.369746,142.2605 67.005422,134.39031 56.85304,126.08595 47.954982,116.58944 42.534665,110.80457 36.393355,105.07912 33.515006,97.692677 28.748722,85.461391 29.949579,58.472987 29.949579,58.472987 Z"
             id="path5257"
             sodipodi:nodetypes="ccasscssssaaaac" />
        </g>
      </g>
      <g
         id="g5267"
         transform="matrix(0.48341561,-0.20154969,0.20154969,0.48341561,63.40995,54.866715)">
        <path
           style="fill:#ffdd55;fill-opacity:1;stroke:none;stroke-width:0.264583px;stroke-linecap:butt;stroke-linejoin:miter;stroke-opacity:1"
           d="m 10.339736,77.72629 c 0,0 3.024321,-18.969649 10.518007,-22.462185 7.525364,-3.5073 24.066627,6.417767 24.066627,6.417767 0,0 18.896758,43.854748 18.896758,45.280918 0,1.42617 32.445382,22.81872 32.445382,22.81872 0,0 25.09909,9.37674 38.15005,8.91357 8.82842,-0.31332 25.31453,-7.84394 25.31453,-7.84394 0,0 26.25643,0.35462 31.65386,10.01611 6.86611,12.29047 -10.2613,40.96948 -10.2613,40.96948 0,0 -28.88884,9.51691 -43.85474,9.62665 -1.48371,0.0109 -2.97323,0.009 -4.46708,-0.008 C 110.96981,191.21589 88.21413,187.9266 69.169268,177.55784 54.849755,169.76213 43.887756,156.24739 34.941175,142.61705 26.98468,130.49513 23.568985,115.92766 18.540215,102.32773 15.542329,94.220168 10.339736,77.72629 10.339736,77.72629 Z"
           id="path5263"
           sodipodi:nodetypes="cacscscacssssac" />
        <path
           style="fill:#ffe786;fill-opacity:1;stroke:none;stroke-width:0.264583px;stroke-linecap:butt;stroke-linejoin:miter;stroke-opacity:1"
           d="m 29.949579,58.472987 10.518007,4.278514 c 0,0 6.937259,29.412361 15.153061,41.715489 7.474306,11.19274 18.234884,20.34344 29.771308,27.27551 12.050322,7.24087 25.805555,12.33206 39.754505,14.08343 9.76866,1.22651 29.41476,-2.67407 29.41476,-2.67407 0,0 13.90516,-5.52641 14.61825,-5.52641 0.71308,0 8.39328,3.77776 7.84394,7.30912 -1.50401,9.66837 -16.66604,10.37121 -26.53961,12.54208 -0.1884,0.0414 -0.37434,0.0799 -0.55763,0.11518 -17.64964,3.40129 -36.76927,2.60316 -53.837937,-3.03061 C 88.998308,152.22108 83.315856,146.7757 77.369746,142.2605 67.005422,134.39031 56.85304,126.08595 47.954982,116.58944 42.534665,110.80457 36.393355,105.07912 33.515006,97.692677 28.748722,85.461391 29.949579,58.472987 29.949579,58.472987 Z"
           id="path5265"
           sodipodi:nodetypes="ccasscssssaaaac" />
      </g>
      <g
         id="g5273"
         transform="matrix(0.52374892,0,0,0.52374892,72.912126,53.888446)">
        <path
           style="fill:#ffdd55;fill-opacity:1;stroke:none;stroke-width:0.264583px;stroke-linecap:butt;stroke-linejoin:miter;stroke-opacity:1"
           d="m 10.339736,77.72629 c 0,0 3.024321,-18.969649 10.518007,-22.462185 7.525364,-3.5073 24.066627,6.417767 24.066627,6.417767 0,0 18.896758,43.854748 18.896758,45.280918 0,1.42617 32.445382,22.81872 32.445382,22.81872 0,0 25.09909,9.37674 38.15005,8.91357 8.82842,-0.31332 25.31453,-7.84394 25.31453,-7.84394 0,0 26.25643,0.35462 31.65386,10.01611 6.86611,12.29047 -10.2613,40.96948 -10.2613,40.96948 0,0 -28.88884,9.51691 -43.85474,9.62665 -1.48371,0.0109 -2.97323,0.009 -4.46708,-0.008 C 110.96981,191.21589 88.21413,187.9266 69.169268,177.55784 54.849755,169.76213 43.887756,156.24739 34.941175,142.61705 26.98468,130.49513 23.568985,115.92766 18.540215,102.32773 15.542329,94.220168 10.339736,77.72629 10.339736,77.72629 Z"
           id="path5269"
           sodipodi:nodetypes="cacscscacssssac" />
        <path
           style="fill:#ffe786;fill-opacity:1;stroke:none;stroke-width:0.264583px;stroke-linecap:butt;stroke-linejoin:miter;stroke-opacity:1"
           d="m 29.949579,58.472987 10.518007,4.278514 c 0,0 6.937259,29.412361 15.153061,41.715489 7.474306,11.19274 18.234884,20.34344 29.771308,27.27551 12.050322,7.24087 25.805555,12.33206 39.754505,14.08343 9.76866,1.22651 29.41476,-2.67407 29.41476,-2.67407 0,0 13.90516,-5.52641 14.61825,-5.52641 0.71308,0 8.39328,3.77776 7.84394,7.30912 -1.50401,9.66837 -16.66604,10.37121 -26.53961,12.54208 -0.1884,0.0414 -0.37434,0.0799 -0.55763,0.11518 -17.64964,3.40129 -36.76927,2.60316 -53.837937,-3.03061 C 88.998308,152.22108 83.315856,146.7757 77.369746,142.2605 67.005422,134.39031 56.85304,126.08595 47.954982,116.58944 42.534665,110.80457 36.393355,105.07912 33.515006,97.692677 28.748722,85.461391 29.949579,58.472987 29.949579,58.472987 Z"
           id="path5271"
           sodipodi:nodetypes="ccasscssssaaaac" />
      </g>
      <g
         id="g5279"
         transform="matrix(0.50400772,0.14243999,-0.14243999,0.50400772,71.561624,60.860652)">
        <path
           style="fill:#ffdd55;fill-opacity:1;stroke:none;stroke-width:0.264583px;stroke-linecap:butt;stroke-linejoin:miter;stroke-opacity:1"
           d="m 10.339736,77.72629 c 0,0 3.024321,-18.969649 10.518007,-22.462185 7.525364,-3.5073 24.066627,6.417767 24.066627,6.417767 0,0 18.896758,43.854748 18.896758,45.280918 0,1.42617 32.445382,22.81872 32.445382,22.81872 0,0 25.09909,9.37674 38.15005,8.91357 8.82842,-0.31332 25.31453,-7.84394 25.31453,-7.84394 0,0 26.25643,0.35462 31.65386,10.01611 6.86611,12.29047 -10.2613,40.96948 -10.2613,40.96948 0,0 -28.88884,9.51691 -43.85474,9.62665 -1.48371,0.0109 -2.97323,0.009 -4.46708,-0.008 C 110.96981,191.21589 88.21413,187.9266 69.169268,177.55784 54.849755,169.76213 43.887756,156.24739 34.941175,142.61705 26.98468,130.49513 23.568985,115.92766 18.540215,102.32773 15.542329,94.220168 10.339736,77.72629 10.339736,77.72629 Z"
           id="path5275"
           sodipodi:nodetypes="cacscscacssssac" />
        <path
           style="fill:#ffe786;fill-opacity:1;stroke:none;stroke-width:0.264583px;stroke-linecap:butt;stroke-linejoin:miter;stroke-opacity:1"
           d="m 29.949579,58.472987 10.518007,4.278514 c 0,0 6.937259,29.412361 15.153061,41.715489 7.474306,11.19274 18.234884,20.34344 29.771308,27.27551 12.050322,7.24087 25.805555,12.33206 39.754505,14.08343 9.76866,1.22651 29.41476,-2.67407 29.41476,-2.67407 0,0 13.90516,-5.52641 14.61825,-5.52641 0.71308,0 8.39328,3.77776 7.84394,7.30912 -1.50401,9.66837 -16.66604,10.37121 -26.53961,12.54208 -0.1884,0.0414 -0.37434,0.0799 -0.55763,0.11518 -17.64964,3.40129 -36.76927,2.60316 -53.837937,-3.03061 C 88.998308,152.22108 83.315856,146.7757 77.369746,142.2605 67.005422,134.39031 56.85304,126.08595 47.954982,116.58944 42.534665,110.80457 36.393355,105.07912 33.515006,97.692677 28.748722,85.461391 29.949579,58.472987 29.949579,58.472987 Z"
           id="path5277"
           sodipodi:nodetypes="ccasscssssaaaac" />
      </g>
    </g>
    <g
       id="g5309"
       transform="matrix(0.59786182,0.22312556,-0.22898232,0.58257012,184.90115,-20.853226)">
      <g
         id="g5289"
         transform="matrix(0.48341586,-0.20154969,0.20154979,0.48341561,76.894944,40.140071)">
        <g
           id="g5287"
           transform="rotate(-11.567563,93.317773,134.66324)">
          <path
             style="fill:#ffdd55;fill-opacity:1;stroke:none;stroke-width:0.264583px;stroke-linecap:butt;stroke-linejoin:miter;stroke-opacity:1"
             d="m 10.339736,77.72629 c 0,0 3.024321,-18.969649 10.518007,-22.462185 7.525364,-3.5073 24.066627,6.417767 24.066627,6.417767 0,0 18.896758,43.854748 18.896758,45.280918 0,1.42617 32.445382,22.81872 32.445382,22.81872 0,0 25.09909,9.37674 38.15005,8.91357 8.82842,-0.31332 25.31453,-7.84394 25.31453,-7.84394 0,0 26.25643,0.35462 31.65386,10.01611 6.86611,12.29047 -10.2613,40.96948 -10.2613,40.96948 0,0 -28.88884,9.51691 -43.85474,9.62665 -1.48371,0.0109 -2.97323,0.009 -4.46708,-0.008 C 110.96981,191.21589 88.21413,187.9266 69.169268,177.55784 54.849755,169.76213 43.887756,156.24739 34.941175,142.61705 26.98468,130.49513 23.568985,115.92766 18.540215,102.32773 15.542329,94.220168 10.339736,77.72629 10.339736,77.72629 Z"
             id="path5283"
             sodipodi:nodetypes="cacscscacssssac" />
          <path
             style="fill:#ffe786;fill-opacity:1;stroke:none;stroke-width:0.264583px;stroke-linecap:butt;stroke-linejoin:miter;stroke-opacity:1"
             d="m 29.949579,58.472987 10.518007,4.278514 c 0,0 6.937259,29.412361 15.153061,41.715489 7.474306,11.19274 18.234884,20.34344 29.771308,27.27551 12.050322,7.24087 25.805555,12.33206 39.754505,14.08343 9.76866,1.22651 29.41476,-2.67407 29.41476,-2.67407 0,0 13.90516,-5.52641 14.61825,-5.52641 0.71308,0 8.39328,3.77776 7.84394,7.30912 -1.50401,9.66837 -16.66604,10.37121 -26.53961,12.54208 -0.1884,0.0414 -0.37434,0.0799 -0.55763,0.11518 -17.64964,3.40129 -36.76927,2.60316 -53.837937,-3.03061 C 88.998308,152.22108 83.315856,146.7757 77.369746,142.2605 67.005422,134.39031 56.85304,126.08595 47.954982,116.58944 42.534665,110.80457 36.393355,105.07912 33.515006,97.692677 28.748722,85.461391 29.949579,58.472987 29.949579,58.472987 Z"
             id="path5285"
             sodipodi:nodetypes="ccasscssssaaaac" />
        </g>
      </g>
      <g
         id="g5295"
         transform="matrix(0.48341561,-0.20154969,0.20154969,0.48341561,63.40995,54.866715)">
        <path
           style="fill:#ffdd55;fill-opacity:1;stroke:none;stroke-width:0.264583px;stroke-linecap:butt;stroke-linejoin:miter;stroke-opacity:1"
           d="m 10.339736,77.72629 c 0,0 3.024321,-18.969649 10.518007,-22.462185 7.525364,-3.5073 24.066627,6.417767 24.066627,6.417767 0,0 18.896758,43.854748 18.896758,45.280918 0,1.42617 32.445382,22.81872 32.445382,22.81872 0,0 25.09909,9.37674 38.15005,8.91357 8.82842,-0.31332 25.31453,-7.84394 25.31453,-7.84394 0,0 26.25643,0.35462 31.65386,10.01611 6.86611,12.29047 -10.2613,40.96948 -10.2613,40.96948 0,0 -28.88884,9.51691 -43.85474,9.62665 -1.48371,0.0109 -2.97323,0.009 -4.46708,-0.008 C 110.96981,191.21589 88.21413,187.9266 69.169268,177.55784 54.849755,169.76213 43.887756,156.24739 34.941175,142.61705 26.98468,130.49513 23.568985,115.92766 18.540215,102.32773 15.542329,94.220168 10.339736,77.72629 10.339736,77.72629 Z"
           id="path5291"
           sodipodi:nodetypes="cacscscacssssac" />
        <path
           style="fill:#ffe786;fill-opacity:1;stroke:none;stroke-width:0.264583px;stroke-linecap:butt;stroke-linejoin:miter;stroke-opacity:1"
           d="m 29.949579,58.472987 10.518007,4.278514 c 0,0 6.937259,29.412361 15.153061,41.715489 7.474306,11.19274 18.234884,20.34344 29.771308,27.27551 12.050322,7.24087 25.805555,12.33206 39.754505,14.08343 9.76866,1.22651 29.41476,-2.67407 29.41476,-2.67407 0,0 13.90516,-5.52641 14.61825,-5.52641 0.71308,0 8.39328,3.77776 7.84394,7.30912 -1.50401,9.66837 -16.66604,10.37121 -26.53961,12.54208 -0.1884,0.0414 -0.37434,0.0799 -0.55763,0.11518 -17.64964,3.40129 -36.76927,2.60316 -53.837937,-3.03061 C 88.998308,152.22108 83.315856,146.7757 77.369746,142.2605 67.005422,134.39031 56.85304,126.08595 47.954982,116.58944 42.534665,110.80457 36.393355,105.07912 33.515006,97.692677 28.748722,85.461391 29.949579,58.472987 29.949579,58.472987 Z"
           id="path5293"
           sodipodi:nodetypes="ccasscssssaaaac" />
      </g>
      <g
         id="g5301"
         transform="matrix(0.52374892,0,0,0.52374892,72.912126,53.888446)">
        <path
           style="fill:#ffdd55;fill-opacity:1;stroke:none;stroke-width:0.264583px;stroke-linecap:butt;stroke-linejoin:miter;stroke-opacity:1"
           d="m 10.339736,77.72629 c 0,0 3.024321,-18.969649 10.518007,-22.462185 7.525364,-3.5073 24.066627,6.417767 24.066627,6.417767 0,0 18.896758,43.854748 18.896758,45.280918 0,1.42617 32.445382,22.81872 32.445382,22.81872 0,0 25.09909,9.37674 38.15005,8.91357 8.82842,-0.31332 25.31453,-7.84394 25.31453,-7.84394 0,0 26.25643,0.35462 31.65386,10.01611 6.86611,12.29047 -10.2613,40.96948 -10.2613,40.96948 0,0 -28.88884,9.51691 -43.85474,9.62665 -1.48371,0.0109 -2.97323,0.009 -4.46708,-0.008 C 110.96981,191.21589 88.21413,187.9266 69.169268,177.55784 54.849755,169.76213 43.887756,156.24739 34.941175,142.61705 26.98468,130.49513 23.568985,115.92766 18.540215,102.32773 15.542329,94.220168 10.339736,77.72629 10.339736,77.72629 Z"
           id="path5297"
           sodipodi:nodetypes="cacscscacssssac" />
        <path
           style="fill:#ffe786;fill-opacity:1;stroke:none;stroke-width:0.264583px;stroke-linecap:butt;stroke-linejoin:miter;stroke-opacity:1"
           d="m 29.949579,58.472987 10.518007,4.278514 c 0,0 6.937259,29.412361 15.153061,41.715489 7.474306,11.19274 18.234884,20.34344 29.771308,27.27551 12.050322,7.24087 25.805555,12.33206 39.754505,14.08343 9.76866,1.22651 29.41476,-2.67407 29.41476,-2.67407 0,0 13.90516,-5.52641 14.61825,-5.52641 0.71308,0 8.39328,3.77776 7.84394,7.30912 -1.50401,9.66837 -16.66604,10.37121 -26.53961,12.54208 -0.1884,0.0414 -0.37434,0.0799 -0.55763,0.11518 -17.64964,3.40129 -36.76927,2.60316 -53.837937,-3.03061 C 88.998308,152.22108 83.315856,146.7757 77.369746,142.2605 67.005422,134.39031 56.85304,126.08595 47.954982,116.58944 42.534665,110.80457 36.393355,105.07912 33.515006,97.692677 28.748722,85.461391 29.949579,58.472987 29.949579,58.472987 Z"
           id="path5299"
           sodipodi:nodetypes="ccasscssssaaaac" />
      </g>
      <g
         id="g5307"
         transform="matrix(0.50400772,0.14243999,-0.14243999,0.50400772,71.561624,60.860652)">
        <path
           style="fill:#ffdd55;fill-opacity:1;stroke:none;stroke-width:0.264583px;stroke-linecap:butt;stroke-linejoin:miter;stroke-opacity:1"
           d="m 10.339736,77.72629 c 0,0 3.024321,-18.969649 10.518007,-22.462185 7.525364,-3.5073 24.066627,6.417767 24.066627,6.417767 0,0 18.896758,43.854748 18.896758,45.280918 0,1.42617 32.445382,22.81872 32.445382,22.81872 0,0 25.09909,9.37674 38.15005,8.91357 8.82842,-0.31332 25.31453,-7.84394 25.31453,-7.84394 0,0 26.25643,0.35462 31.65386,10.01611 6.86611,12.29047 -10.2613,40.96948 -10.2613,40.96948 0,0 -28.88884,9.51691 -43.85474,9.62665 -1.48371,0.0109 -2.97323,0.009 -4.46708,-0.008 C 110.96981,191.21589 88.21413,187.9266 69.169268,177.55784 54.849755,169.76213 43.887756,156.24739 34.941175,142.61705 26.98468,130.49513 23.568985,115.92766 18.540215,102.32773 15.542329,94.220168 10.339736,77.72629 10.339736,77.72629 Z"
           id="path5303"
           sodipodi:nodetypes="cacscscacssssac" />
        <path
           style="fill:#ffe786;fill-opacity:1;stroke:none;stroke-width:0.264583px;stroke-linecap:butt;stroke-linejoin:miter;stroke-opacity:1"
           d="m 29.949579,58.472987 10.518007,4.278514 c 0,0 6.937259,29.412361 15.153061,41.715489 7.474306,11.19274 18.234884,20.34344 29.771308,27.27551 12.050322,7.24087 25.805555,12.33206 39.754505,14.08343 9.76866,1.22651 29.41476,-2.67407 29.41476,-2.67407 0,0 13.90516,-5.52641 14.61825,-5.52641 0.71308,0 8.39328,3.77776 7.84394,7.30912 -1.50401,9.66837 -16.66604,10.37121 -26.53961,12.54208 -0.1884,0.0414 -0.37434,0.0799 -0.55763,0.11518 -17.64964,3.40129 -36.76927,2.60316 -53.837937,-3.03061 C 88.998308,152.22108 83.315856,146.7757 77.369746,142.2605 67.005422,134.39031 56.85304,126.08595 47.954982,116.58944 42.534665,110.80457 36.393355,105.07912 33.515006,97.692677 28.748722,85.461391 29.949579,58.472987 29.949579,58.472987 Z"
           id="path5305"
           sodipodi:nodetypes="ccasscssssaaaac" />
      </g>
    </g>
  </g>
</svg>
