<?xml version="1.0" encoding="UTF-8" standalone="no"?>
<!-- Created with Inkscape (http://www.inkscape.org/) -->

<svg
   width="297mm"
   height="210mm"
   viewBox="0 0 297 210"
   version="1.1"
   id="svg5"
   inkscape:version="1.1 (c68e22c387, 2021-05-23)"
   sodipodi:docname="elefanto-kuniklo.svg"
   xmlns:inkscape="http://www.inkscape.org/namespaces/inkscape"
   xmlns:sodipodi="http://sodipodi.sourceforge.net/DTD/sodipodi-0.dtd"
   xmlns="http://www.w3.org/2000/svg"
   xmlns:svg="http://www.w3.org/2000/svg">
  <sodipodi:namedview
     id="namedview7"
     pagecolor="#ffffff"
     bordercolor="#666666"
     borderopacity="1.0"
     inkscape:pageshadow="2"
     inkscape:pageopacity="0.0"
     inkscape:pagecheckerboard="0"
     inkscape:document-units="mm"
     showgrid="false"
     inkscape:zoom="0.47794262"
     inkscape:cx="461.35245"
     inkscape:cy="201.90708"
     inkscape:window-width="1920"
     inkscape:window-height="1051"
     inkscape:window-x="-9"
     inkscape:window-y="-9"
     inkscape:window-maximized="1"
     inkscape:current-layer="layer1" />
  <defs
     id="defs2" />
  <g
     inkscape:label="Layer 1"
     inkscape:groupmode="layer"
     id="layer1">
    <g
       id="g888"
       transform="matrix(0.38226701,0,0,0.31857161,191.6147,110.91478)">
      <path
         id="path962"
         style="fill:#fd475d;fill-opacity:1;stroke-width:3.91678;stroke-linecap:round;stroke-linejoin:round;stroke-miterlimit:10;paint-order:markers fill stroke"
         d="m 157.36894,152.88146 c 0,24.91536 -25.03958,39.65369 -53.44627,39.65369 -28.406682,0 -57.888112,-20.19789 -51.43485,-45.11325 6.247119,-24.11947 23.028168,-45.11325 51.43485,-45.11325 28.40669,0 53.44627,25.65745 53.44627,50.57281 z"
         sodipodi:nodetypes="sssss" />
      <path
         id="path2328"
         style="fill:#fd475d;fill-opacity:1;stroke-width:2.96396;stroke-linecap:round;stroke-linejoin:round;stroke-miterlimit:10;paint-order:markers fill stroke"
         d="m 86.681939,81.619776 c 0,12.440973 9.587326,25.842564 7.053997,33.112724 -1.926142,5.52768 -11.851746,2.51813 -14.524984,2.51812 -6.18916,-1e-5 -11.20648,-22.351079 -11.20648,-44.251209 0,-21.90013 5.01732,-39.653691 11.20648,-39.653682 6.189161,-9e-6 7.470987,26.373918 7.470987,48.274047 z"
         sodipodi:nodetypes="ssssss" />
      <path
         id="path2980"
         style="fill:#ef9ec8;fill-opacity:1;stroke-width:1.82438;stroke-linecap:round;stroke-linejoin:round;stroke-miterlimit:10;paint-order:markers fill stroke"
         d="m 83.521141,80.614067 c 0,7.657672 5.901187,19.211096 4.34188,23.686033 -1.185585,3.40239 -8.73173,4.13606 -10.377155,4.13606 -3.809567,0 -5.461096,-19.648128 -5.461096,-33.128102 0,-13.479976 2.72908,-27.424783 6.538647,-27.424778 3.809551,-5e-6 4.957724,19.250811 4.957724,32.730787 z"
         sodipodi:nodetypes="sssscs" />
      <path
         id="path5574"
         style="fill:#ef9ec8;fill-opacity:1;stroke-width:1.82438;stroke-linecap:round;stroke-linejoin:round;stroke-miterlimit:10;paint-order:markers fill stroke"
         d="m 83.521141,80.614067 c 0,7.657672 5.901187,19.211096 4.34188,23.686033 -1.185585,3.40239 -8.73173,4.13606 -10.377155,4.13606 -3.809567,0 -5.461096,-19.648128 -5.461096,-33.128102 0,-13.479976 2.72908,-27.424783 6.538647,-27.424778 3.809551,-5e-6 4.957724,19.250811 4.957724,32.730787 z"
         sodipodi:nodetypes="sssscs" />
      <path
         id="path5854"
         style="fill:#fd475d;fill-opacity:1;stroke-width:2.96396;stroke-linecap:round;stroke-linejoin:round;stroke-miterlimit:10;paint-order:markers fill stroke"
         d="m 117.14978,81.332431 c 0,12.440973 -9.58732,25.842559 -7.05399,33.112729 1.92614,5.52767 11.85174,2.51812 14.52498,2.51812 6.18916,-1e-5 11.20648,-22.351084 11.20648,-44.251214 0,-21.90013 -5.01732,-39.653691 -11.20648,-39.653682 -6.18916,-9e-6 -7.47099,26.373918 -7.47099,48.274047 z"
         sodipodi:nodetypes="ssssss" />
      <path
         id="path5856"
         style="fill:#ef9ec8;fill-opacity:1;stroke-width:1.82438;stroke-linecap:round;stroke-linejoin:round;stroke-miterlimit:10;paint-order:markers fill stroke"
         d="m 120.31058,80.326722 c 0,7.657672 -5.90119,19.211096 -4.34188,23.686028 1.18559,3.4024 8.73173,4.13607 10.37716,4.13607 3.80956,-1e-5 5.46109,-19.648133 5.46109,-33.128107 0,-13.479976 -2.72908,-27.424783 -6.53865,-27.424778 -3.80955,-5e-6 -4.95772,19.250811 -4.95772,32.730787 z"
         sodipodi:nodetypes="sssscs" />
      <path
         id="path5858"
         style="fill:#ef9ec8;fill-opacity:1;stroke-width:1.82438;stroke-linecap:round;stroke-linejoin:round;stroke-miterlimit:10;paint-order:markers fill stroke"
         d="m 120.31058,80.326722 c 0,7.657672 -5.90119,19.211096 -4.34188,23.686028 1.18559,3.4024 8.73173,4.13607 10.37716,4.13607 3.80956,-1e-5 5.46109,-19.648133 5.46109,-33.128107 0,-13.479976 -2.72908,-27.424783 -6.53865,-27.424778 -3.80955,-5e-6 -4.95772,19.250811 -4.95772,32.730787 z"
         sodipodi:nodetypes="sssscs" />
      <ellipse
         style="fill:#ef9ec8;fill-opacity:1;stroke-width:2.96396;stroke-linecap:round;stroke-linejoin:round;stroke-miterlimit:10;paint-order:markers fill stroke"
         id="path5884"
         cx="103.34797"
         cy="146.41618"
         rx="4.5975285"
         ry="4.1665101" />
      <path
         style="fill:none;stroke:#000000;stroke-width:1.77638;stroke-linecap:butt;stroke-linejoin:round;stroke-miterlimit:4;stroke-dasharray:none;stroke-opacity:1"
         d="m 103.21511,150.52315 0.20319,22.95979"
         id="path5999" />
      <g
         id="g6128"
         transform="matrix(1.6679586,0,0,1.6679586,33.523009,9.2087005)">
        <ellipse
           style="fill:#000000;fill-opacity:1;stroke-width:1.777;stroke-linecap:round;stroke-linejoin:round;stroke-miterlimit:10;paint-order:markers fill stroke"
           id="ellipse6081"
           cx="32.360882"
           cy="73.124527"
           rx="2.7563806"
           ry="2.4979699" />
        <ellipse
           style="fill:#ffffff;fill-opacity:1;stroke-width:0.942925;stroke-linecap:round;stroke-linejoin:round;stroke-miterlimit:10;paint-order:markers fill stroke"
           id="ellipse6101"
           cx="33.351162"
           cy="73.048393"
           rx="1.4626111"
           ry="1.3254913" />
      </g>
      <g
         id="g6134"
         transform="matrix(1.6679586,0,0,1.6679586,66.032444,8.8023325)">
        <ellipse
           style="fill:#000000;fill-opacity:1;stroke-width:1.777;stroke-linecap:round;stroke-linejoin:round;stroke-miterlimit:10;paint-order:markers fill stroke"
           id="ellipse6130"
           cx="32.360882"
           cy="73.124527"
           rx="2.7563806"
           ry="2.4979699" />
        <ellipse
           style="fill:#ffffff;fill-opacity:1;stroke-width:0.942925;stroke-linecap:round;stroke-linejoin:round;stroke-miterlimit:10;paint-order:markers fill stroke"
           id="ellipse6132"
           cx="33.351162"
           cy="73.048393"
           rx="1.4626111"
           ry="1.3254913" />
      </g>
      <path
         style="fill:none;stroke:#000000;stroke-width:1.77638;stroke-linecap:round;stroke-linejoin:round;stroke-miterlimit:4;stroke-dasharray:none;stroke-opacity:1;paint-order:normal"
         d="m 103.4183,173.48294 c 14.04068,-0.35582 25.06503,-5.15678 28.85212,-20.62317"
         id="path6169"
         sodipodi:nodetypes="cc" />
      <path
         style="fill:none;stroke:#000000;stroke-width:1.77638;stroke-linecap:round;stroke-linejoin:round;stroke-miterlimit:4;stroke-dasharray:none;stroke-opacity:1"
         d="M 103.4183,173.48294 C 89.377607,173.12712 78.353259,168.32616 74.566171,152.85977"
         id="path6228"
         sodipodi:nodetypes="cc" />
      <path
         style="fill:none;stroke:#000000;stroke-width:0.442009;stroke-linecap:round;stroke-linejoin:miter;stroke-miterlimit:4;stroke-dasharray:none;stroke-opacity:1"
         d="m 125.18623,143.11172 45.97529,-8.33302"
         id="path6939"
         sodipodi:nodetypes="cc" />
      <path
         style="fill:none;stroke:#000000;stroke-width:0.442009;stroke-linecap:round;stroke-linejoin:miter;stroke-miterlimit:4;stroke-dasharray:none;stroke-opacity:1"
         d="m 125.26057,145.64674 49.79481,-1.38415"
         id="path7988"
         sodipodi:nodetypes="cc" />
      <path
         style="fill:none;stroke:#000000;stroke-width:0.442009;stroke-linecap:round;stroke-linejoin:miter;stroke-miterlimit:4;stroke-dasharray:none;stroke-opacity:1"
         d="m 124.9757,140.82005 44.51777,-16.47096"
         id="path8279"
         sodipodi:nodetypes="cc" />
      <g
         id="g8678"
         transform="matrix(1.6679586,0,0,1.6679586,33.523009,9.2087005)">
        <path
           style="fill:none;stroke:#000000;stroke-width:0.265;stroke-linecap:round;stroke-linejoin:miter;stroke-miterlimit:4;stroke-dasharray:none;stroke-opacity:1"
           d="M 54.955334,80.279582 82.51914,75.283641"
           id="path8669"
           sodipodi:nodetypes="cc" />
        <path
           style="fill:none;stroke:#000000;stroke-width:0.265;stroke-linecap:round;stroke-linejoin:miter;stroke-miterlimit:4;stroke-dasharray:none;stroke-opacity:1"
           d="M 54.999904,81.799415 84.853647,80.969572"
           id="path8671"
           sodipodi:nodetypes="cc" />
        <path
           style="fill:none;stroke:#000000;stroke-width:0.265;stroke-linecap:round;stroke-linejoin:miter;stroke-miterlimit:4;stroke-dasharray:none;stroke-opacity:1"
           d="M 54.829112,78.905644 81.519089,69.030725"
           id="path8673"
           sodipodi:nodetypes="cc" />
      </g>
      <g
         id="g8686"
         transform="matrix(-1.6679586,0,0,1.6679586,177.58943,10.429277)">
        <path
           style="fill:none;stroke:#000000;stroke-width:0.265;stroke-linecap:round;stroke-linejoin:miter;stroke-miterlimit:4;stroke-dasharray:none;stroke-opacity:1"
           d="M 54.955334,80.279582 82.51914,75.283641"
           id="path8680"
           sodipodi:nodetypes="cc" />
        <path
           style="fill:none;stroke:#000000;stroke-width:0.265;stroke-linecap:round;stroke-linejoin:miter;stroke-miterlimit:4;stroke-dasharray:none;stroke-opacity:1"
           d="M 54.999904,81.799415 84.853647,80.969572"
           id="path8682"
           sodipodi:nodetypes="cc" />
        <path
           style="fill:none;stroke:#000000;stroke-width:0.265;stroke-linecap:round;stroke-linejoin:miter;stroke-miterlimit:4;stroke-dasharray:none;stroke-opacity:1"
           d="M 54.829112,78.905644 81.519089,69.030725"
           id="path8684"
           sodipodi:nodetypes="cc" />
      </g>
      <rect
         style="fill:#fd475d;fill-opacity:1;stroke-width:0.442007;stroke-linecap:round;stroke-linejoin:round;stroke-miterlimit:4;stroke-dasharray:none;paint-order:normal"
         id="rect13790"
         width="50.795994"
         height="62.174297"
         x="80.458504"
         y="182.931"
         ry="25.397999" />
      <rect
         style="fill:#fd475d;fill-opacity:1;stroke-width:0.1524;stroke-linecap:round;stroke-linejoin:round;stroke-miterlimit:4;stroke-dasharray:none;paint-order:normal"
         id="rect14053"
         width="11.784669"
         height="31.859343"
         x="89.641602"
         y="228.15582"
         ry="3.0193491" />
      <rect
         style="fill:#fd475d;fill-opacity:1;stroke-width:0.1524;stroke-linecap:round;stroke-linejoin:round;stroke-miterlimit:4;stroke-dasharray:none;paint-order:normal"
         id="rect14154"
         width="11.784669"
         height="31.859343"
         x="109.03742"
         y="228.73051"
         ry="3.0193491" />
      <rect
         style="fill:#fd475d;fill-opacity:1;stroke:#e797a1;stroke-width:0.459051;stroke-linecap:round;stroke-linejoin:round;stroke-miterlimit:4;stroke-dasharray:none;stroke-opacity:1;paint-order:normal"
         id="rect14156"
         width="11.977791"
         height="15.530097"
         x="154.02626"
         y="163.81721"
         ry="5.0636268"
         transform="rotate(13.670763)" />
      <rect
         style="fill:#fd475d;fill-opacity:1;stroke:#e797a1;stroke-width:0.459051;stroke-linecap:round;stroke-linejoin:round;stroke-miterlimit:4;stroke-dasharray:none;stroke-opacity:1;paint-order:normal"
         id="rect17587"
         width="11.977791"
         height="15.530097"
         x="38.463459"
         y="214.31506"
         ry="5.0636268"
         transform="rotate(-14.112005)" />
    </g>
    <g
       id="g956"
       transform="matrix(0.6817281,0,0,0.57893012,121.99591,60.835174)">
      <rect
         style="fill:#51a64f;fill-opacity:1;stroke-width:0.261854;stroke-linecap:round;stroke-linejoin:round;stroke-miterlimit:4;stroke-dasharray:none;paint-order:normal"
         id="rect38988"
         width="26.236994"
         height="42.246445"
         x="-22.299469"
         y="185.05769"
         ry="4.0037475" />
      <rect
         style="fill:#51a64f;fill-opacity:1;stroke-width:0.261854;stroke-linecap:round;stroke-linejoin:round;stroke-miterlimit:4;stroke-dasharray:none;paint-order:normal"
         id="rect38990"
         width="26.236994"
         height="42.246445"
         x="20.88274"
         y="185.81975"
         ry="4.0037475" />
      <g
         id="g23496"
         transform="translate(-219.92378,8.6523106)">
        <path
           id="path23492"
           style="fill:#75d173;fill-opacity:1;stroke-width:5.24365;stroke-linecap:round;stroke-linejoin:round;stroke-miterlimit:10;paint-order:markers fill stroke"
           d="m 180.47024,9.9485301 c 0,40.5377919 -27.58306,64.5173469 -58.87527,64.5173469 -31.292188,0 -63.768297,-32.86237 -56.659523,-73.4001611 6.881689,-39.2428629 25.367335,-73.4001629 56.659523,-73.4001629 31.29221,0 58.87527,41.745185 58.87527,82.2829771 z"
           sodipodi:nodetypes="sssss" />
        <path
           id="path23494"
           style="fill:#448d42;fill-opacity:1;stroke-width:3.46389;stroke-linecap:round;stroke-linejoin:round;stroke-miterlimit:10;paint-order:markers fill stroke"
           d="m 162.44369,3.5626315 c 0,26.2021735 -18.62201,41.7016975 -39.74817,41.7016975 -21.12613,0 -43.051569,-21.241056 -38.252257,-47.4432295 4.645999,-25.3651785 17.126127,-47.4432305 38.252257,-47.4432305 21.12616,0 39.74817,26.982589 39.74817,53.1847625 z"
           sodipodi:nodetypes="sssss" />
      </g>
      <g
         id="g23490">
        <path
           id="path2378"
           style="fill:#75d173;fill-opacity:1;stroke-width:5.24365;stroke-linecap:round;stroke-linejoin:round;stroke-miterlimit:10;paint-order:markers fill stroke"
           d="m 180.47024,9.9485301 c 0,40.5377919 -27.58306,64.5173469 -58.87527,64.5173469 -31.292188,0 -63.768297,-32.86237 -56.659523,-73.4001611 6.881689,-39.2428629 25.367335,-73.4001629 56.659523,-73.4001629 31.29221,0 58.87527,41.745185 58.87527,82.2829771 z"
           sodipodi:nodetypes="sssss" />
        <path
           id="path22766"
           style="fill:#448d42;fill-opacity:1;stroke-width:3.46389;stroke-linecap:round;stroke-linejoin:round;stroke-miterlimit:10;paint-order:markers fill stroke"
           d="m 162.44369,3.5626315 c 0,26.2021735 -18.62201,41.7016975 -39.74817,41.7016975 -21.12613,0 -43.051569,-21.241056 -38.252257,-47.4432295 4.645999,-25.3651785 17.126127,-47.4432305 38.252257,-47.4432305 21.12616,0 39.74817,26.982589 39.74817,53.1847625 z"
           sodipodi:nodetypes="sssss" />
      </g>
      <path
         id="path890"
         style="fill:#75d173;fill-opacity:1;stroke-width:8.72019;stroke-linecap:round;stroke-linejoin:round;stroke-miterlimit:10;paint-order:markers fill stroke"
         d="m 135.40785,20.791471 c 0,55.470727 -55.74729,88.283649 -118.990998,88.283649 -63.24369,0 -128.880162,-44.967905 -114.512836,-100.4386319 13.908377,-53.6987841 51.269146,-100.4386371 114.512836,-100.4386371 63.243708,0 118.990998,57.122892 118.990998,112.59362 z"
         sodipodi:nodetypes="sssss" />
      <g
         id="g912"
         transform="matrix(3.7134875,0,0,3.7134875,-140.31861,-299.07677)">
        <ellipse
           style="fill:#000000;fill-opacity:1;stroke-width:1.777;stroke-linecap:round;stroke-linejoin:round;stroke-miterlimit:10;paint-order:markers fill stroke"
           id="ellipse908"
           cx="32.360882"
           cy="73.124527"
           rx="2.7563806"
           ry="2.4979699" />
        <ellipse
           style="fill:#ffffff;fill-opacity:1;stroke-width:0.942925;stroke-linecap:round;stroke-linejoin:round;stroke-miterlimit:10;paint-order:markers fill stroke"
           id="ellipse910"
           cx="33.351162"
           cy="73.048393"
           rx="1.4626111"
           ry="1.3254913" />
      </g>
      <g
         id="g918"
         transform="matrix(3.7134875,0,0,3.7134875,-67.940685,-299.9815)">
        <ellipse
           style="fill:#000000;fill-opacity:1;stroke-width:1.777;stroke-linecap:round;stroke-linejoin:round;stroke-miterlimit:10;paint-order:markers fill stroke"
           id="ellipse914"
           cx="32.360882"
           cy="73.124527"
           rx="2.7563806"
           ry="2.4979699" />
        <ellipse
           style="fill:#ffffff;fill-opacity:1;stroke-width:0.942925;stroke-linecap:round;stroke-linejoin:round;stroke-miterlimit:10;paint-order:markers fill stroke"
           id="ellipse916"
           cx="33.351162"
           cy="73.048393"
           rx="1.4626111"
           ry="1.3254913" />
      </g>
      <rect
         style="fill:#75d173;fill-opacity:1;stroke-width:0.918449;stroke-linecap:round;stroke-linejoin:round;stroke-miterlimit:4;stroke-dasharray:none;paint-order:normal"
         id="rect946"
         width="113.09051"
         height="120.5774"
         x="-35.822987"
         y="87.692764"
         ry="49.255474" />
      <rect
         style="fill:#75d173;fill-opacity:1;stroke-width:0.261854;stroke-linecap:round;stroke-linejoin:round;stroke-miterlimit:4;stroke-dasharray:none;paint-order:normal"
         id="rect948"
         width="26.236994"
         height="42.246445"
         x="-15.378043"
         y="188.37981"
         ry="4.0037475" />
      <rect
         style="fill:#75d173;fill-opacity:1;stroke-width:0.261854;stroke-linecap:round;stroke-linejoin:round;stroke-miterlimit:4;stroke-dasharray:none;paint-order:normal"
         id="rect950"
         width="26.236994"
         height="42.246445"
         x="27.804165"
         y="189.14186"
         ry="4.0037475" />
      <path
         style="fill:#51a64f;fill-opacity:1;stroke:none;stroke-width:0.758186px;stroke-linecap:butt;stroke-linejoin:miter;stroke-opacity:1"
         d="m 2.4788359,-3.1161092 c 0,0 11.5544181,-7.0588358 17.8012061,-7.0300028 6.104278,0.02818 17.350543,7.0300028 17.350543,7.0300028 l 4.055977,55.1584822 35.580954,35.650391 31.567904,13.559626 -4.50664,7.57077 -35.151748,-8.11154 -44.165019,-22.171548 c 0,0 -21.7634416,-14.272297 -26.1384863,-27.038466 C -6.9149598,34.611082 2.4788359,-3.1161092 2.4788359,-3.1161092 Z"
         id="path23611"
         sodipodi:nodetypes="cacccccccsc" />
    </g>
  </g>
</svg>
