<?xml version="1.0" encoding="UTF-8" standalone="no"?>
<!-- Created with Inkscape (http://www.inkscape.org/) -->

<svg
   width="297mm"
   height="210mm"
   viewBox="0 0 297 210"
   version="1.1"
   id="svg5"
   inkscape:version="1.1 (c68e22c387, 2021-05-23)"
   sodipodi:docname="hundo-ne-volas-iri.svg"
   xmlns:inkscape="http://www.inkscape.org/namespaces/inkscape"
   xmlns:sodipodi="http://sodipodi.sourceforge.net/DTD/sodipodi-0.dtd"
   xmlns="http://www.w3.org/2000/svg"
   xmlns:svg="http://www.w3.org/2000/svg">
  <sodipodi:namedview
     id="namedview7"
     pagecolor="#ffffff"
     bordercolor="#666666"
     borderopacity="1.0"
     inkscape:pageshadow="2"
     inkscape:pageopacity="0.0"
     inkscape:pagecheckerboard="0"
     inkscape:document-units="mm"
     showgrid="false"
     inkscape:zoom="0.54299809"
     inkscape:cx="162.984"
     inkscape:cy="733.8884"
     inkscape:window-width="1920"
     inkscape:window-height="1051"
     inkscape:window-x="-9"
     inkscape:window-y="-9"
     inkscape:window-maximized="1"
     inkscape:current-layer="layer1" />
  <defs
     id="defs2" />
  <g
     inkscape:label="Layer 1"
     inkscape:groupmode="layer"
     id="layer1">
    <g
       id="g42833"
       transform="matrix(1.6755534,0,0,1.4712189,16.449543,17.534985)">
      <path
         d="m 19.751365,88.015399 c 0,-8.881666 7.199914,-16.08158 16.081579,-16.08158 v 0 c 8.881665,0 16.081584,7.199914 16.081584,16.08158 v 12.810741 c 0,8.88167 -7.199919,16.08158 -16.081584,16.08158 v 0 c -8.881665,0 -16.081579,-7.19991 -16.081579,-16.08158 z"
         fill="#632523"
         fill-rule="evenodd"
         id="path966"
         style="fill:#559e83;fill-opacity:1;stroke-width:0.272569" />
      <path
         d="m 20.023935,103.0067 h 31.890593 c 0,1.28844 0,2.57687 0,3.86503 0,7.65019 -7.138865,13.85197 -15.945298,13.85197 v 0 c -8.806437,0 -15.945295,-6.20178 -15.945295,-13.85197 z"
         fill-rule="evenodd"
         id="path990"
         style="stroke-width:0.272569" />
      <path
         d="m 30.790415,68.416057 c 0,-2.279226 1.847474,-4.1267 4.126695,-4.1267 h 1.831671 c 2.279216,0 4.126695,1.847474 4.126695,4.1267 v 6.737914 c 0,2.279221 -1.847479,4.126699 -4.126695,4.126699 H 34.91711 c -2.279221,0 -4.126695,-1.847478 -4.126695,-4.126699 z"
         fill="#ff9966"
         fill-rule="evenodd"
         id="path968"
         style="stroke-width:0.272569" />
      <path
         d="m 8.8678314,22.861679 c 0,-14.601963 12.4301256,-26.4392035 27.7631916,-26.4392035 15.333073,0 27.763193,11.8372405 27.763193,26.4392035 0,14.602073 -12.43012,26.439207 -27.763193,26.439207 -15.333066,0 -27.7631916,-11.837134 -27.7631916,-26.439207 z"
         fill-rule="evenodd"
         id="path970"
         style="stroke-width:0.265938" />
      <g
         id="g1604"
         transform="matrix(0.47861742,0,0,0.47861742,-12.165634,2.1198052)">
        <path
           d="m 40.611373,69.997879 c 0,-9.435923 7.903989,-17.08478 17.654273,-17.08478 9.750284,0 17.654273,7.648857 17.654273,17.08478 0,9.435924 -7.903989,17.084781 -17.654273,17.084781 -9.750284,0 -17.654273,-7.648857 -17.654273,-17.084781 z"
           fill="#ffcc99"
           fill-rule="evenodd"
           id="path972"
           style="stroke-width:0.569492" />
        <path
           d="m 48.014778,70.282624 c 0,-5.189787 4.589541,-9.396629 10.250868,-9.396629 5.661327,0 10.250868,4.206842 10.250868,9.396629 0,5.189787 -4.589541,9.39663 -10.250868,9.39663 -5.661327,0 -10.250868,-4.206843 -10.250868,-9.39663 z"
           fill="#ff9966"
           fill-rule="evenodd"
           id="path974"
           style="stroke-width:0.569492" />
      </g>
      <g
         id="g1600"
         transform="matrix(0.47861742,0,0,0.47861742,-13.990786,3.8863346)">
        <path
           d="m 127.74375,66.580923 c 0,-9.435924 7.904,-17.08478 17.65428,-17.08478 9.75028,0 17.65427,7.648856 17.65427,17.08478 0,9.435924 -7.90399,17.084781 -17.65427,17.084781 -9.75028,0 -17.65428,-7.648857 -17.65428,-17.084781 z"
           fill="#ffcc99"
           fill-rule="evenodd"
           id="path976"
           style="stroke-width:0.569492" />
        <path
           d="m 136.28614,66.865668 c 0,-5.189787 4.71712,-9.396629 10.53561,-9.396629 5.81851,0 10.53563,4.206842 10.53563,9.396629 0,5.189787 -4.71712,9.396629 -10.53563,9.396629 -5.81849,0 -10.53561,-4.206842 -10.53561,-9.396629 z"
           fill="#ff9966"
           fill-rule="evenodd"
           id="path978"
           style="stroke-width:0.569492" />
      </g>
      <path
         d="m 14.261971,30.443196 c 0,-12.645026 10.250778,-22.8958058 22.895803,-22.8958058 v 0 c 12.645026,0 22.895801,10.2507798 22.895801,22.8958058 v 16.354148 c 0,12.645026 -10.250775,22.895801 -22.895801,22.895801 v 0 c -12.645025,0 -22.895803,-10.250775 -22.895803,-22.895801 z"
         fill="#ffcc99"
         fill-rule="evenodd"
         id="path980"
         style="stroke-width:0.272569" />
      <path
         d="m 39.610899,10.54565 c 0,-4.6666007 4.210105,-8.449642 9.403637,-8.449642 5.193528,0 9.403628,3.7830413 9.403628,8.449642 0,4.666657 -4.2101,8.449643 -9.403628,8.449643 -5.193532,0 -9.403637,-3.782986 -9.403637,-8.449643 z"
         fill-rule="evenodd"
         id="path982"
         style="stroke-width:0.272569" />
      <path
         d="m 14.807108,10.136796 c 0,-4.4408043 4.75933,-8.040788 10.630196,-8.040788 5.870866,0 10.630195,3.5999837 10.630195,8.040788 0,4.440697 -4.759329,8.04079 -10.630195,8.04079 -5.870866,0 -10.630196,-3.600093 -10.630196,-8.04079 z"
         fill-rule="evenodd"
         id="path984"
         style="stroke-width:0.272569" />
      <path
         d="m 33.352814,29.573747 c 0,-1.128981 0.915287,-2.044267 2.044269,-2.044267 1.128981,0 2.044267,0.915286 2.044267,2.044267 0,1.128982 -0.915286,2.044269 -2.044267,2.044269 -1.128982,0 -2.044269,-0.915287 -2.044269,-2.044269 z"
         fill-rule="evenodd"
         id="path986"
         style="stroke-width:0.272569" />
      <path
         d="m 50.52467,29.573747 c 0,-1.128981 0.915281,-2.044267 2.044257,-2.044267 1.12899,0 2.044276,0.915286 2.044276,2.044267 0,1.128982 -0.915286,2.044269 -2.044276,2.044269 -1.128976,0 -2.044257,-0.915287 -2.044257,-2.044269 z"
         fill-rule="evenodd"
         id="path988"
         style="stroke-width:0.272569" />
      <path
         d="m 25.164735,10.54565 c 0,-5.2687601 5.61356,-9.5399183 12.538179,-9.5399183 6.924619,0 12.538179,4.2711582 12.538179,9.5399183 0,5.268761 -5.61356,9.53992 -12.538179,9.53992 -6.924619,0 -12.538179,-4.271159 -12.538179,-9.53992 z"
         fill-rule="evenodd"
         id="path1000"
         style="stroke-width:0.272569" />
      <path
         d="m 42.348916,28.828256 c 0,-3.838591 3.844043,-6.950512 8.585927,-6.950512 4.741888,0 8.585935,3.111921 8.585935,6.950512 0,3.838591 -3.844047,6.950512 -8.585935,6.950512 -4.741884,0 -8.585927,-3.111921 -8.585927,-6.950512 z"
         stroke="#404040"
         stroke-width="0.908565"
         stroke-linejoin="round"
         stroke-miterlimit="10"
         fill="none"
         fill-rule="evenodd"
         id="path1002" />
      <path
         d="m 14.437611,27.345083 9.749208,1.599779"
         stroke="#404040"
         stroke-width="0.682497"
         stroke-linejoin="round"
         stroke-miterlimit="10"
         fill="none"
         fill-rule="evenodd"
         id="path1030"
         sodipodi:nodetypes="cc" />
      <path
         d="m 24.186819,28.944862 c 0,-3.838591 3.905098,-6.950511 8.722212,-6.950511 4.817115,0 8.722207,3.11192 8.722207,6.950511 0,3.838592 -3.905092,6.950512 -8.722207,6.950512 -4.817114,0 -8.722212,-3.11192 -8.722212,-6.950512 z"
         stroke="#404040"
         stroke-width="0.908565"
         stroke-linejoin="round"
         stroke-miterlimit="10"
         fill="none"
         fill-rule="evenodd"
         id="path1032" />
      <path
         d="m 36.442729,98.130839 c 1.286647,1.195994 3.28226,1.103708 4.457266,-0.205925 v 0 c 1.174994,-1.309628 1.084327,-3.340884 -0.202324,-4.536877 L 27.26747,80.904035 c -1.286875,-1.195908 -3.28234,-1.103941 -4.4575,0.206015 l 2.43e-4,-8.1e-5 c -1.175245,1.309696 -1.084573,3.340961 0.202073,4.53694 z"
         stroke="#0d0d0d"
         stroke-width="1.77738"
         stroke-linejoin="round"
         stroke-miterlimit="10"
         fill="#632523"
         fill-rule="evenodd"
         id="path1042"
         style="fill:#559e83;fill-opacity:1;stroke:#94c5b3;stroke-width:0.850685;stroke-linejoin:round;stroke-miterlimit:10;stroke-dasharray:none;stroke-dashoffset:0;stroke-opacity:1" />
      <path
         d="m 48.890218,84.042227 c 0.505673,-0.698978 0.348867,-1.675686 -0.35011,-2.18135 v 0 c -0.699049,-0.505933 -1.675753,-0.349128 -2.181422,0.349845 l -4.12704,5.705142 c -0.505933,0.699049 -0.349131,1.675748 0.349846,2.181421 v 0 c 0.699313,0.505862 1.676012,0.349047 2.181609,-0.350186 z"
         fill="#ffcc99"
         fill-rule="evenodd"
         id="path996"
         style="stroke-width:0.272569" />
      <path
         d="m 46.73649,89.963031 c 0.958676,-1.398152 0.602235,-3.308671 -0.795917,-4.267338 v 0 c -1.398152,-0.958676 -3.308666,-0.60224 -4.267338,0.795916 l -5.414243,7.896615 c -0.958443,1.398004 -0.602231,3.308667 0.795921,4.267343 v 0 c 1.398152,0.958671 3.308667,0.602226 4.267343,-0.795917 z"
         stroke="#0d0d0d"
         stroke-width="0.908565"
         stroke-linejoin="round"
         stroke-miterlimit="10"
         fill="#632523"
         fill-rule="evenodd"
         id="path1044"
         style="fill:#559e83;fill-opacity:1;stroke:#94c5b3;stroke-opacity:1" />
      <path
         d="m 36.481922,97.503004 c 1.092885,1.015883 2.78797,0.937501 3.786019,-0.174914 v 0 c 0.998044,-1.112401 0.921034,-2.837753 -0.171856,-3.853641 L 28.688425,82.870488 c -1.093078,-1.015802 -2.788033,-0.937684 -3.786221,0.174995 l 2.11e-4,-6.7e-5 c -0.998255,1.112459 -0.92124,2.837825 0.171641,3.853699 z"
         stroke="#0d0d0d"
         stroke-width="1.77738"
         stroke-linejoin="round"
         stroke-miterlimit="10"
         fill="#632523"
         fill-rule="evenodd"
         id="path14751"
         style="fill:#559e83;fill-opacity:1;stroke:none;stroke-width:0.722573;stroke-linejoin:round;stroke-miterlimit:10;stroke-dasharray:none;stroke-dashoffset:0;stroke-opacity:1" />
      <g
         id="g11411"
         transform="matrix(0.44833554,0,0,0.44833554,-1.086081,-7.5413217)">
        <path
           d="m 119.29809,190.99828 c -2.10073,-2.2923 -5.66231,-2.44734 -7.95505,-0.34585 l -3.82996,3.51021 c -2.29231,2.10075 -2.44734,5.66231 -0.34587,7.95504 v 0 c 2.10074,2.29232 5.66232,2.44736 7.95505,0.34587 l 3.82996,-3.51023 c 2.29215,-2.10132 2.44719,-5.66288 0.34587,-7.95504 z"
           fill="#ffcc99"
           fill-rule="evenodd"
           id="path1034"
           style="stroke-width:0.607957" />
        <path
           d="m 105.06934,191.8776 c -1.05643,0.63035 -1.26846,2.9288 -0.47339,5.13389 l 1.328,3.68347 c 0.79476,2.20456 2.29559,3.48062 3.35223,2.84993 v 0 c 1.05644,-0.63035 1.26847,-2.92879 0.47342,-5.13388 l -1.32803,-3.68347 c -0.79502,-2.20464 -2.29585,-3.48072 -3.35223,-2.84994 z"
           fill="#ffcc99"
           fill-rule="evenodd"
           id="path3055"
           style="stroke-width:0.328927" />
      </g>
    </g>
    <ellipse
       style="fill:#000000;fill-rule:evenodd;stroke:none;stroke-width:2.4132;stroke-linecap:round;stroke-linejoin:round"
       id="path1384"
       cx="76.926781"
       cy="102.8431"
       rx="2.6799512"
       ry="4.2331047" />
    <g
       id="g11386"
       transform="translate(18.516026,8.2834853)">
      <g
         id="g2086"
         transform="matrix(0.78977325,-0.41843216,0.49578449,0.93577255,-38.934689,94.33923)"
         style="fill:#9e6816;fill-opacity:1">
        <rect
           style="fill:#9e6816;fill-opacity:1;stroke-width:0.0651744;stroke-linecap:round;stroke-linejoin:round;stroke-miterlimit:4;stroke-dasharray:none;paint-order:normal"
           id="rect14053"
           width="6.3596325"
           height="10.796985"
           x="-190.79729"
           y="166.11185"
           ry="1.0232435"
           transform="scale(-1,1)" />
        <ellipse
           style="fill:#9e6816;fill-opacity:1;stroke-width:0.267151;stroke-linecap:round;stroke-linejoin:round"
           id="path41494"
           cx="-189.93517"
           cy="176.60045"
           rx="1.4566122"
           ry="1.1329207"
           transform="scale(-1,1)" />
        <g
           id="g41585"
           transform="matrix(-0.68324991,0,0,0.68324991,327.78366,50.728546)"
           style="fill:#9e6816;fill-opacity:1">
          <ellipse
             style="fill:#9e6816;fill-opacity:1;stroke-width:0.391001;stroke-linecap:round;stroke-linejoin:round"
             id="ellipse41496"
             cx="201.75414"
             cy="184.22527"
             rx="2.1318879"
             ry="1.6581352" />
          <ellipse
             style="fill:#9e6816;fill-opacity:1;stroke-width:0.391001;stroke-linecap:round;stroke-linejoin:round"
             id="ellipse41578"
             cx="204.76892"
             cy="184.3114"
             rx="2.1318879"
             ry="1.6581352" />
          <ellipse
             style="fill:#9e6816;fill-opacity:1;stroke-width:0.391001;stroke-linecap:round;stroke-linejoin:round"
             id="ellipse41580"
             cx="208.17133"
             cy="184.22527"
             rx="2.1318879"
             ry="1.6581352" />
        </g>
      </g>
      <g
         id="g2114"
         transform="matrix(0.78977325,-0.41843216,0.49578449,0.93577255,-60.124364,94.683778)"
         style="fill:#9e6816;fill-opacity:1">
        <rect
           style="fill:#9e6816;fill-opacity:1;stroke-width:0.0651744;stroke-linecap:round;stroke-linejoin:round;stroke-miterlimit:4;stroke-dasharray:none;paint-order:normal"
           id="rect2102"
           width="6.3596325"
           height="10.796985"
           x="-190.79729"
           y="166.11185"
           ry="1.0232435"
           transform="scale(-1,1)" />
        <ellipse
           style="fill:#9e6816;fill-opacity:1;stroke-width:0.267151;stroke-linecap:round;stroke-linejoin:round"
           id="ellipse2104"
           cx="-189.93517"
           cy="176.60045"
           rx="1.4566122"
           ry="1.1329207"
           transform="scale(-1,1)" />
        <g
           id="g2112"
           transform="matrix(-0.68324991,0,0,0.68324991,327.78366,50.728546)"
           style="fill:#9e6816;fill-opacity:1">
          <ellipse
             style="fill:#9e6816;fill-opacity:1;stroke-width:0.391001;stroke-linecap:round;stroke-linejoin:round"
             id="ellipse2106"
             cx="201.75414"
             cy="184.22527"
             rx="2.1318879"
             ry="1.6581352" />
          <ellipse
             style="fill:#9e6816;fill-opacity:1;stroke-width:0.391001;stroke-linecap:round;stroke-linejoin:round"
             id="ellipse2108"
             cx="204.76892"
             cy="184.3114"
             rx="2.1318879"
             ry="1.6581352" />
          <ellipse
             style="fill:#9e6816;fill-opacity:1;stroke-width:0.391001;stroke-linecap:round;stroke-linejoin:round"
             id="ellipse2110"
             cx="208.17133"
             cy="184.22527"
             rx="2.1318879"
             ry="1.6581352" />
        </g>
      </g>
      <path
         id="path962"
         style="fill:#b97610;fill-opacity:1;stroke-width:1.99573;stroke-linecap:round;stroke-linejoin:round;stroke-miterlimit:10;paint-order:markers fill stroke"
         d="m 161.12801,134.36784 c 0,12.33176 13.13459,19.62644 28.0354,19.62644 14.90082,0 30.36539,-9.99687 26.98031,-22.32863 -3.27694,-11.93785 -12.07949,-22.32864 -26.98031,-22.32864 -14.90081,0 -28.0354,12.69906 -28.0354,25.03083 z"
         sodipodi:nodetypes="sssss" />
      <ellipse
         style="fill:#ef9ec8;fill-opacity:1;stroke-width:1.51024;stroke-linecap:round;stroke-linejoin:round;stroke-miterlimit:10;paint-order:markers fill stroke"
         id="path5884"
         cx="-189.46489"
         cy="131.16788"
         rx="2.4116478"
         ry="2.0621986"
         transform="scale(-1,1)" />
      <path
         style="fill:none;stroke:#000000;stroke-width:0.905;stroke-linecap:butt;stroke-linejoin:round;stroke-miterlimit:4;stroke-dasharray:none;stroke-opacity:1"
         d="m 189.53457,133.2006 -0.10658,11.36386"
         id="path5999" />
      <path
         id="rect13790"
         style="fill:#b97610;stroke-width:0.296888;stroke-linecap:round;stroke-linejoin:round"
         d="m 188.19474,147.23975 -21.27852,2.58953 c -3.45657,0.42066 -6.62473,1.40163 -8.89688,3.67377 -2.27214,2.27214 -3.8084,5.41741 -3.67377,8.89687 l 0.11771,3.04212 c 0.26925,6.95893 5.60651,12.57064 12.57064,12.57064 h 21.16082 c 6.96413,0 9.0486,-6.15417 11.51129,-10.80505 1.40986,-2.66259 1.41247,-8.92742 1.41247,-8.92742 1.08831,-6.87857 -6.01063,-11.88177 -12.92376,-11.04046 z"
         sodipodi:nodetypes="sssssssass" />
      <path
         id="path1971"
         style="fill:#b97610;stroke-width:0.267151;stroke-linecap:round;stroke-linejoin:round"
         d="m 148.84248,123.33375 c 0,6.50073 4.79559,11.77061 10.71125,11.77061 5.91566,0 14.24243,-4.44594 14.24243,-10.94667 0,-3.25036 -1.19889,-6.19301 -3.13725,-8.32307 -1.93835,-2.13006 -4.61617,-3.44753 -7.574,-3.44753 -5.91566,0 -14.24243,4.44593 -14.24243,10.94666 z"
         sodipodi:nodetypes="ssssss" />
      <path
         id="path41306"
         style="fill:#b97610;stroke-width:0.267151;stroke-linecap:round;stroke-linejoin:round"
         d="m 228.41177,123.80457 c 0,6.50073 -4.7956,11.77061 -10.71126,11.77061 -5.91566,0 -14.24242,-4.44594 -14.24242,-10.94666 0,-3.25037 1.19889,-6.19302 3.13725,-8.32308 1.93835,-2.13006 4.61617,-3.44753 7.574,-3.44753 5.91566,0 14.24243,4.44594 14.24243,10.94666 z"
         sodipodi:nodetypes="ssssss" />
      <g
         id="g2100"
         transform="matrix(0.78977325,-0.41843216,0.49578449,0.93577255,-46.084051,97.95698)">
        <rect
           style="fill:#b97610;fill-opacity:1;stroke-width:0.0651744;stroke-linecap:round;stroke-linejoin:round;stroke-miterlimit:4;stroke-dasharray:none;paint-order:normal"
           id="rect2088"
           width="6.3596325"
           height="10.796985"
           x="-190.79729"
           y="166.11185"
           ry="1.0232435"
           transform="scale(-1,1)" />
        <ellipse
           style="fill:#b97610;fill-opacity:1;stroke-width:0.267151;stroke-linecap:round;stroke-linejoin:round"
           id="ellipse2090"
           cx="-189.93517"
           cy="176.60045"
           rx="1.4566122"
           ry="1.1329207"
           transform="scale(-1,1)" />
        <g
           id="g2098"
           transform="matrix(-0.68324991,0,0,0.68324991,327.78366,50.728546)">
          <ellipse
             style="fill:#b97610;fill-opacity:1;stroke-width:0.391001;stroke-linecap:round;stroke-linejoin:round"
             id="ellipse2092"
             cx="201.75414"
             cy="184.22527"
             rx="2.1318879"
             ry="1.6581352" />
          <ellipse
             style="fill:#b97610;fill-opacity:1;stroke-width:0.391001;stroke-linecap:round;stroke-linejoin:round"
             id="ellipse2094"
             cx="204.76892"
             cy="184.3114"
             rx="2.1318879"
             ry="1.6581352" />
          <ellipse
             style="fill:#b97610;fill-opacity:1;stroke-width:0.391001;stroke-linecap:round;stroke-linejoin:round"
             id="ellipse2096"
             cx="208.17133"
             cy="184.22527"
             rx="2.1318879"
             ry="1.6581352" />
        </g>
      </g>
      <g
         id="g2143"
         transform="matrix(0.78977325,-0.41843216,0.49578449,0.93577255,-68.910328,96.061968)">
        <rect
           style="fill:#b97610;fill-opacity:1;stroke-width:0.0651744;stroke-linecap:round;stroke-linejoin:round;stroke-miterlimit:4;stroke-dasharray:none;paint-order:normal"
           id="rect2131"
           width="6.3596325"
           height="10.796985"
           x="-190.79729"
           y="166.11185"
           ry="1.0232435"
           transform="scale(-1,1)" />
        <ellipse
           style="fill:#b97610;fill-opacity:1;stroke-width:0.267151;stroke-linecap:round;stroke-linejoin:round"
           id="ellipse2133"
           cx="-189.93517"
           cy="176.60045"
           rx="1.4566122"
           ry="1.1329207"
           transform="scale(-1,1)" />
        <g
           id="g2141"
           transform="matrix(-0.68324991,0,0,0.68324991,327.78366,50.728546)">
          <ellipse
             style="fill:#b97610;fill-opacity:1;stroke-width:0.391001;stroke-linecap:round;stroke-linejoin:round"
             id="ellipse2135"
             cx="201.75414"
             cy="184.22527"
             rx="2.1318879"
             ry="1.6581352" />
          <ellipse
             style="fill:#b97610;fill-opacity:1;stroke-width:0.391001;stroke-linecap:round;stroke-linejoin:round"
             id="ellipse2137"
             cx="204.76892"
             cy="184.3114"
             rx="2.1318879"
             ry="1.6581352" />
          <ellipse
             style="fill:#b97610;fill-opacity:1;stroke-width:0.391001;stroke-linecap:round;stroke-linejoin:round"
             id="ellipse2139"
             cx="208.17133"
             cy="184.22527"
             rx="2.1318879"
             ry="1.6581352" />
        </g>
      </g>
      <path
         style="fill:none;stroke:#000000;stroke-width:0.905;stroke-linecap:round;stroke-linejoin:miter;stroke-miterlimit:4;stroke-dasharray:none;stroke-opacity:1"
         d="m 181.07942,122.9123 3.83721,3.10631 -4.26356,2.19269"
         id="path9173" />
      <path
         style="fill:none;stroke:#000000;stroke-width:0.905;stroke-linecap:round;stroke-linejoin:miter;stroke-miterlimit:4;stroke-dasharray:none;stroke-opacity:1"
         d="m 197.70503,122.79048 -3.83721,3.10631 4.26356,2.19269"
         id="path9175" />
      <path
         style="fill:none;stroke:#000000;stroke-width:0.905;stroke-linecap:round;stroke-linejoin:round;stroke-miterlimit:4;stroke-dasharray:none;stroke-opacity:1"
         d="m 175.97767,142.12587 2.41183,3.61775 4.13458,-1.72274 3.35933,3.18706 3.54458,-2.64348"
         id="path10528"
         sodipodi:nodetypes="ccccc" />
      <path
         style="fill:none;stroke:#000000;stroke-width:0.905;stroke-linecap:round;stroke-linejoin:round;stroke-miterlimit:4;stroke-dasharray:none;stroke-opacity:1"
         d="m 202.87831,142.12587 -2.41183,3.61775 -4.13458,-1.72274 -3.35933,3.18706 -3.54458,-2.64348"
         id="path11047"
         sodipodi:nodetypes="ccccc" />
    </g>
    <path
       style="fill:none;stroke:#000000;stroke-width:1.35719;stroke-linecap:round;stroke-linejoin:miter;stroke-miterlimit:4;stroke-dasharray:2.71438, 1.35719, 0.678596, 1.35719;stroke-dashoffset:0;stroke-opacity:1"
       d="m 104.42629,132.60106 c 3.02837,6.34172 83.80265,24.62157 83.80265,24.62157"
       id="path11233" />
  </g>
</svg>
