<?xml version="1.0" encoding="UTF-8" standalone="no"?>
<!-- Created with Inkscape (http://www.inkscape.org/) -->

<svg
   width="297mm"
   height="210mm"
   viewBox="0 0 297 210"
   version="1.1"
   id="svg5"
   inkscape:version="1.1 (c68e22c387, 2021-05-23)"
   sodipodi:docname="kuniklo-saltas-sur-elefanton.svg"
   xmlns:inkscape="http://www.inkscape.org/namespaces/inkscape"
   xmlns:sodipodi="http://sodipodi.sourceforge.net/DTD/sodipodi-0.dtd"
   xmlns="http://www.w3.org/2000/svg"
   xmlns:svg="http://www.w3.org/2000/svg">
  <sodipodi:namedview
     id="namedview7"
     pagecolor="#ffffff"
     bordercolor="#666666"
     borderopacity="1.0"
     inkscape:pageshadow="2"
     inkscape:pageopacity="0.0"
     inkscape:pagecheckerboard="0"
     inkscape:document-units="mm"
     showgrid="false"
     inkscape:zoom="0.47794262"
     inkscape:cx="450.89095"
     inkscape:cy="547.13681"
     inkscape:window-width="1920"
     inkscape:window-height="1051"
     inkscape:window-x="-9"
     inkscape:window-y="-9"
     inkscape:window-maximized="1"
     inkscape:current-layer="layer1"
     inkscape:snap-center="true" />
  <defs
     id="defs2" />
  <g
     inkscape:label="Layer 1"
     inkscape:groupmode="layer"
     id="layer1">
    <g
       id="g3047"
       transform="matrix(0.86918708,0,0,0.86918708,28.211795,9.324253)">
      <path
         id="path962"
         style="fill:#fd475d;fill-opacity:1;stroke-width:1.36684;stroke-linecap:round;stroke-linejoin:round;stroke-miterlimit:10;paint-order:markers fill stroke"
         d="m 252.32524,54.43674 c 0,7.937326 -9.5718,12.63254 -20.43074,12.63254 -10.85894,0 -22.12872,-6.434475 -19.66185,-14.371801 2.38807,-7.683778 8.80291,-14.371801 19.66185,-14.371801 10.85894,0 20.43074,8.173735 20.43074,16.111062 z"
         sodipodi:nodetypes="sssss" />
      <path
         id="path2328"
         style="fill:#fd475d;fill-opacity:1;stroke-width:1.03433;stroke-linecap:round;stroke-linejoin:round;stroke-miterlimit:10;paint-order:markers fill stroke"
         d="m 225.30394,31.73479 c 0,3.963341 3.66491,8.232708 2.69651,10.548774 -0.7363,1.760962 -4.53054,0.802205 -5.55243,0.802202 -2.36591,-3e-6 -4.28386,-7.12042 -4.28386,-14.097179 0,-6.97676 1.91795,-12.63254 4.28386,-12.632538 2.36592,-2e-6 2.85592,8.401982 2.85592,15.378741 z"
         sodipodi:nodetypes="ssssss" />
      <path
         id="path2980"
         style="fill:#ef9ec8;fill-opacity:1;stroke-width:0.636652;stroke-linecap:round;stroke-linejoin:round;stroke-miterlimit:10;paint-order:markers fill stroke"
         d="m 224.09567,31.4144 c 0,2.439517 2.25583,6.12011 1.65975,7.545698 -0.45321,1.083905 -3.33785,1.317631 -3.96684,1.317631 -1.45627,0 -2.0876,-6.259336 -2.0876,-10.553673 0,-4.294337 1.04324,-8.736757 2.49951,-8.736755 1.45627,-2e-6 1.89518,6.132761 1.89518,10.427099 z"
         sodipodi:nodetypes="sssscs" />
      <path
         id="path5574"
         style="fill:#ef9ec8;fill-opacity:1;stroke-width:0.636652;stroke-linecap:round;stroke-linejoin:round;stroke-miterlimit:10;paint-order:markers fill stroke"
         d="m 224.09567,31.4144 c 0,2.439517 2.25583,6.12011 1.65975,7.545698 -0.45321,1.083905 -3.33785,1.317631 -3.96684,1.317631 -1.45627,0 -2.0876,-6.259336 -2.0876,-10.553673 0,-4.294337 1.04324,-8.736757 2.49951,-8.736755 1.45627,-2e-6 1.89518,6.132761 1.89518,10.427099 z"
         sodipodi:nodetypes="sssscs" />
      <path
         id="path5854"
         style="fill:#fd475d;fill-opacity:1;stroke-width:1.03433;stroke-linecap:round;stroke-linejoin:round;stroke-miterlimit:10;paint-order:markers fill stroke"
         d="m 236.95079,31.64325 c 0,3.963341 -3.66492,8.232706 -2.69651,10.548776 0.7363,1.760959 4.53053,0.802201 5.55242,0.802201 2.36591,-3e-6 4.28387,-7.12042 4.28387,-14.09718 0,-6.97676 -1.91796,-12.63254 -4.28387,-12.632537 -2.36591,-3e-6 -2.85591,8.401981 -2.85591,15.37874 z"
         sodipodi:nodetypes="ssssss" />
      <path
         id="path5856"
         style="fill:#ef9ec8;fill-opacity:1;stroke-width:0.636652;stroke-linecap:round;stroke-linejoin:round;stroke-miterlimit:10;paint-order:markers fill stroke"
         d="m 238.15906,31.32286 c 0,2.439517 -2.25583,6.12011 -1.65976,7.545696 0.45321,1.083908 3.33785,1.317635 3.96684,1.317635 1.45627,-4e-6 2.0876,-6.259338 2.0876,-10.553675 0,-4.294337 -1.04324,-8.736757 -2.49951,-8.736755 -1.45627,-2e-6 -1.89517,6.132761 -1.89517,10.427099 z"
         sodipodi:nodetypes="sssscs" />
      <path
         id="path5858"
         style="fill:#ef9ec8;fill-opacity:1;stroke-width:0.636652;stroke-linecap:round;stroke-linejoin:round;stroke-miterlimit:10;paint-order:markers fill stroke"
         d="m 238.15906,31.32286 c 0,2.439517 -2.25583,6.12011 -1.65976,7.545696 0.45321,1.083908 3.33785,1.317635 3.96684,1.317635 1.45627,-4e-6 2.0876,-6.259338 2.0876,-10.553675 0,-4.294337 -1.04324,-8.736757 -2.49951,-8.736755 -1.45627,-2e-6 -1.89517,6.132761 -1.89517,10.427099 z"
         sodipodi:nodetypes="sssscs" />
      <ellipse
         style="fill:#ef9ec8;fill-opacity:1;stroke-width:1.03433;stroke-linecap:round;stroke-linejoin:round;stroke-miterlimit:10;paint-order:markers fill stroke"
         id="path5884"
         cx="231.6748"
         cy="52.377087"
         rx="1.7574835"
         ry="1.3273318" />
      <path
         style="fill:none;stroke:#000000;stroke-width:0.619902;stroke-linecap:butt;stroke-linejoin:round;stroke-miterlimit:4;stroke-dasharray:none;stroke-opacity:1"
         d="m 231.62402,53.685449 0.0777,7.314337"
         id="path5999" />
      <g
         id="g6128"
         transform="matrix(0.63760555,0,0,0.53136426,204.98303,8.6666774)">
        <ellipse
           style="fill:#000000;fill-opacity:1;stroke-width:1.777;stroke-linecap:round;stroke-linejoin:round;stroke-miterlimit:10;paint-order:markers fill stroke"
           id="ellipse6081"
           cx="32.360882"
           cy="73.124527"
           rx="2.7563806"
           ry="2.4979699" />
        <ellipse
           style="fill:#ffffff;fill-opacity:1;stroke-width:0.942925;stroke-linecap:round;stroke-linejoin:round;stroke-miterlimit:10;paint-order:markers fill stroke"
           id="ellipse6101"
           cx="33.351162"
           cy="73.048393"
           rx="1.4626111"
           ry="1.3254913" />
      </g>
      <g
         id="g6134"
         transform="matrix(0.63760555,0,0,0.53136426,217.41031,8.5372201)">
        <ellipse
           style="fill:#000000;fill-opacity:1;stroke-width:1.777;stroke-linecap:round;stroke-linejoin:round;stroke-miterlimit:10;paint-order:markers fill stroke"
           id="ellipse6130"
           cx="32.360882"
           cy="73.124527"
           rx="2.7563806"
           ry="2.4979699" />
        <ellipse
           style="fill:#ffffff;fill-opacity:1;stroke-width:0.942925;stroke-linecap:round;stroke-linejoin:round;stroke-miterlimit:10;paint-order:markers fill stroke"
           id="ellipse6132"
           cx="33.351162"
           cy="73.048393"
           rx="1.4626111"
           ry="1.3254913" />
      </g>
      <path
         style="fill:none;stroke:#000000;stroke-width:0.619902;stroke-linecap:round;stroke-linejoin:round;stroke-miterlimit:4;stroke-dasharray:none;stroke-opacity:1;paint-order:normal"
         d="m 231.70169,60.999786 c 5.36729,-0.113354 9.58154,-1.642803 11.02922,-6.569956"
         id="path6169"
         sodipodi:nodetypes="cc" />
      <path
         style="fill:none;stroke:#000000;stroke-width:0.619902;stroke-linecap:round;stroke-linejoin:round;stroke-miterlimit:4;stroke-dasharray:none;stroke-opacity:1"
         d="M 231.70169,60.999786 C 226.3344,60.886432 222.12016,59.356983 220.67248,54.42983"
         id="path6228"
         sodipodi:nodetypes="cc" />
      <path
         style="fill:none;stroke:#000000;stroke-width:0.154247;stroke-linecap:round;stroke-linejoin:miter;stroke-miterlimit:4;stroke-dasharray:none;stroke-opacity:1"
         d="m 240.02286,51.324378 17.57483,-2.654664"
         id="path6939"
         sodipodi:nodetypes="cc" />
      <path
         style="fill:none;stroke:#000000;stroke-width:0.154247;stroke-linecap:round;stroke-linejoin:miter;stroke-miterlimit:4;stroke-dasharray:none;stroke-opacity:1"
         d="m 240.05127,52.131963 19.03492,-0.440951"
         id="path7988"
         sodipodi:nodetypes="cc" />
      <path
         style="fill:none;stroke:#000000;stroke-width:0.154247;stroke-linecap:round;stroke-linejoin:miter;stroke-miterlimit:4;stroke-dasharray:none;stroke-opacity:1"
         d="m 239.94238,50.594317 17.01767,-5.24718"
         id="path8279"
         sodipodi:nodetypes="cc" />
      <g
         id="g8678"
         transform="matrix(0.63760555,0,0,0.53136426,204.98303,8.6666774)">
        <path
           style="fill:none;stroke:#000000;stroke-width:0.265;stroke-linecap:round;stroke-linejoin:miter;stroke-miterlimit:4;stroke-dasharray:none;stroke-opacity:1"
           d="M 54.955334,80.279582 82.51914,75.283641"
           id="path8669"
           sodipodi:nodetypes="cc" />
        <path
           style="fill:none;stroke:#000000;stroke-width:0.265;stroke-linecap:round;stroke-linejoin:miter;stroke-miterlimit:4;stroke-dasharray:none;stroke-opacity:1"
           d="M 54.999904,81.799415 84.853647,80.969572"
           id="path8671"
           sodipodi:nodetypes="cc" />
        <path
           style="fill:none;stroke:#000000;stroke-width:0.265;stroke-linecap:round;stroke-linejoin:miter;stroke-miterlimit:4;stroke-dasharray:none;stroke-opacity:1"
           d="M 54.829112,78.905644 81.519089,69.030725"
           id="path8673"
           sodipodi:nodetypes="cc" />
      </g>
      <g
         id="g8686"
         transform="matrix(-0.63760555,0,0,0.53136426,260.05487,9.0555185)">
        <path
           style="fill:none;stroke:#000000;stroke-width:0.265;stroke-linecap:round;stroke-linejoin:miter;stroke-miterlimit:4;stroke-dasharray:none;stroke-opacity:1"
           d="M 54.955334,80.279582 82.51914,75.283641"
           id="path8680"
           sodipodi:nodetypes="cc" />
        <path
           style="fill:none;stroke:#000000;stroke-width:0.265;stroke-linecap:round;stroke-linejoin:miter;stroke-miterlimit:4;stroke-dasharray:none;stroke-opacity:1"
           d="M 54.999904,81.799415 84.853647,80.969572"
           id="path8682"
           sodipodi:nodetypes="cc" />
        <path
           style="fill:none;stroke:#000000;stroke-width:0.265;stroke-linecap:round;stroke-linejoin:miter;stroke-miterlimit:4;stroke-dasharray:none;stroke-opacity:1"
           d="M 54.829112,78.905644 81.519089,69.030725"
           id="path8684"
           sodipodi:nodetypes="cc" />
      </g>
      <rect
         style="fill:#fd475d;fill-opacity:1;stroke-width:0.154247;stroke-linecap:round;stroke-linejoin:round;stroke-miterlimit:4;stroke-dasharray:none;paint-order:normal"
         id="rect13790"
         width="19.417633"
         height="19.806967"
         x="191.55405"
         y="132.84578"
         ry="8.0910816"
         transform="rotate(-18.035301)" />
      <rect
         style="fill:#fd475d;fill-opacity:1;stroke-width:0.0531829;stroke-linecap:round;stroke-linejoin:round;stroke-miterlimit:4;stroke-dasharray:none;paint-order:normal"
         id="rect14053"
         width="4.50489"
         height="10.149482"
         x="242.88232"
         y="35.810871"
         ry="0.9618789"
         transform="rotate(10.761469)" />
      <rect
         style="fill:#fd475d;fill-opacity:1;stroke-width:0.0531829;stroke-linecap:round;stroke-linejoin:round;stroke-miterlimit:4;stroke-dasharray:none;paint-order:normal"
         id="rect14154"
         width="4.50489"
         height="10.149482"
         x="105.1337"
         y="230.95825"
         ry="0.9618789"
         transform="rotate(-47.224483)" />
      <rect
         style="fill:#fd475d;fill-opacity:1;stroke:#e797a1;stroke-width:0.160478;stroke-linecap:round;stroke-linejoin:round;stroke-miterlimit:4;stroke-dasharray:none;stroke-opacity:1;paint-order:normal"
         id="rect14156"
         width="4.5394812"
         height="5.0078573"
         x="248.06889"
         y="21.068407"
         ry="1.6328243"
         transform="matrix(0.98006766,0.19866397,-0.28017578,0.95994871,0,0)" />
      <rect
         style="fill:#fd475d;fill-opacity:1;stroke:#e797a1;stroke-width:0.160495;stroke-linecap:round;stroke-linejoin:round;stroke-miterlimit:4;stroke-dasharray:none;stroke-opacity:1;paint-order:normal"
         id="rect17587"
         width="4.5369482"
         height="5.0117145"
         x="210.59448"
         y="82.872688"
         ry="1.634082"
         transform="matrix(0.99811494,-0.06137235,0.14733473,0.98908669,0,0)" />
    </g>
    <rect
       style="fill:#51a64f;fill-opacity:1;stroke-width:0.142986;stroke-linecap:round;stroke-linejoin:round;stroke-miterlimit:4;stroke-dasharray:none;paint-order:normal"
       id="rect38988"
       width="15.546711"
       height="21.25835"
       x="131.14014"
       y="149.06694"
       ry="2.0146799" />
    <rect
       style="fill:#51a64f;fill-opacity:1;stroke-width:0.142986;stroke-linecap:round;stroke-linejoin:round;stroke-miterlimit:4;stroke-dasharray:none;paint-order:normal"
       id="rect38990"
       width="15.546711"
       height="21.25835"
       x="202.43901"
       y="150.89392"
       ry="2.0146799" />
    <rect
       style="fill:#75d173;fill-opacity:1;stroke-width:0.650455;stroke-linecap:round;stroke-linejoin:round;stroke-miterlimit:4;stroke-dasharray:none;paint-order:normal"
       id="rect946"
       width="112.72299"
       height="60.674374"
       x="123.12679"
       y="100.07304"
       ry="24.785286" />
    <rect
       style="fill:#75d173;fill-opacity:1;stroke-width:0.142986;stroke-linecap:round;stroke-linejoin:round;stroke-miterlimit:4;stroke-dasharray:none;paint-order:normal"
       id="rect948"
       width="15.546711"
       height="21.25835"
       x="135.24142"
       y="150.73862"
       ry="2.0146799" />
    <rect
       style="fill:#75d173;fill-opacity:1;stroke-width:0.142986;stroke-linecap:round;stroke-linejoin:round;stroke-miterlimit:4;stroke-dasharray:none;paint-order:normal"
       id="rect950"
       width="15.546711"
       height="21.25835"
       x="206.5403"
       y="152.5656"
       ry="2.0146799" />
    <g
       id="g989"
       transform="matrix(0.86918708,0,0,0.86918708,-7.6118273,21.008249)">
      <g
         id="g23496"
         transform="matrix(0.6817281,0,0,0.57893012,-27.932311,65.844257)">
        <path
           id="path23492"
           style="fill:#75d173;fill-opacity:1;stroke-width:5.24365;stroke-linecap:round;stroke-linejoin:round;stroke-miterlimit:10;paint-order:markers fill stroke"
           d="m 180.47024,9.9485301 c 0,40.5377919 -27.58306,64.5173469 -58.87527,64.5173469 -31.292188,0 -63.768297,-32.86237 -56.659523,-73.4001611 6.881689,-39.2428629 25.367335,-73.4001629 56.659523,-73.4001629 31.29221,0 58.87527,41.745185 58.87527,82.2829771 z"
           sodipodi:nodetypes="sssss" />
        <path
           id="path23494"
           style="fill:#448d42;fill-opacity:1;stroke-width:3.46389;stroke-linecap:round;stroke-linejoin:round;stroke-miterlimit:10;paint-order:markers fill stroke"
           d="m 162.44369,3.5626315 c 0,26.2021735 -18.62201,41.7016975 -39.74817,41.7016975 -21.12613,0 -43.051569,-21.241056 -38.252257,-47.4432295 4.645999,-25.3651785 17.126127,-47.4432305 38.252257,-47.4432305 21.12616,0 39.74817,26.982589 39.74817,53.1847625 z"
           sodipodi:nodetypes="sssss" />
      </g>
      <g
         id="g23490"
         transform="matrix(0.6817281,0,0,0.57893012,121.99591,60.835174)">
        <path
           id="path2378"
           style="fill:#75d173;fill-opacity:1;stroke-width:5.24365;stroke-linecap:round;stroke-linejoin:round;stroke-miterlimit:10;paint-order:markers fill stroke"
           d="m 180.47024,9.9485301 c 0,40.5377919 -27.58306,64.5173469 -58.87527,64.5173469 -31.292188,0 -63.768297,-32.86237 -56.659523,-73.4001611 6.881689,-39.2428629 25.367335,-73.4001629 56.659523,-73.4001629 31.29221,0 58.87527,41.745185 58.87527,82.2829771 z"
           sodipodi:nodetypes="sssss" />
        <path
           id="path22766"
           style="fill:#448d42;fill-opacity:1;stroke-width:3.46389;stroke-linecap:round;stroke-linejoin:round;stroke-miterlimit:10;paint-order:markers fill stroke"
           d="m 162.44369,3.5626315 c 0,26.2021735 -18.62201,41.7016975 -39.74817,41.7016975 -21.12613,0 -43.051569,-21.241056 -38.252257,-47.4432295 4.645999,-25.3651785 17.126127,-47.4432305 38.252257,-47.4432305 21.12616,0 39.74817,26.982589 39.74817,53.1847625 z"
           sodipodi:nodetypes="sssss" />
      </g>
      <path
         id="path890"
         style="fill:#75d173;fill-opacity:1;stroke-width:5.47828;stroke-linecap:round;stroke-linejoin:round;stroke-miterlimit:10;paint-order:markers fill stroke"
         d="m 214.30725,72.871983 c 0,32.113677 -38.0045,51.110067 -81.11951,51.110067 -43.115001,0 -87.861229,-26.033278 -78.066619,-58.146953 9.481732,-31.087843 34.951618,-58.1469521 78.066619,-58.1469521 43.11501,0 81.11951,33.0701631 81.11951,65.1838381 z"
         sodipodi:nodetypes="sssss" />
      <g
         id="g912"
         transform="matrix(2.5315888,0,0,2.1498498,26.336771,-112.30938)">
        <ellipse
           style="fill:#000000;fill-opacity:1;stroke-width:1.777;stroke-linecap:round;stroke-linejoin:round;stroke-miterlimit:10;paint-order:markers fill stroke"
           id="ellipse908"
           cx="32.360882"
           cy="73.124527"
           rx="2.7563806"
           ry="2.4979699" />
        <ellipse
           style="fill:#ffffff;fill-opacity:1;stroke-width:0.942925;stroke-linecap:round;stroke-linejoin:round;stroke-miterlimit:10;paint-order:markers fill stroke"
           id="ellipse910"
           cx="33.351162"
           cy="73.048393"
           rx="1.4626111"
           ry="1.3254913" />
      </g>
      <g
         id="g918"
         transform="matrix(2.5315888,0,0,2.1498498,75.678836,-112.83315)">
        <ellipse
           style="fill:#000000;fill-opacity:1;stroke-width:1.777;stroke-linecap:round;stroke-linejoin:round;stroke-miterlimit:10;paint-order:markers fill stroke"
           id="ellipse914"
           cx="32.360882"
           cy="73.124527"
           rx="2.7563806"
           ry="2.4979699" />
        <ellipse
           style="fill:#ffffff;fill-opacity:1;stroke-width:0.942925;stroke-linecap:round;stroke-linejoin:round;stroke-miterlimit:10;paint-order:markers fill stroke"
           id="ellipse916"
           cx="33.351162"
           cy="73.048393"
           rx="1.4626111"
           ry="1.3254913" />
      </g>
      <path
         style="fill:#51a64f;fill-opacity:1;stroke:none;stroke-width:0.476315px;stroke-linecap:butt;stroke-linejoin:miter;stroke-opacity:1"
         d="m 123.6858,59.031165 c 0,0 7.87697,-4.086573 12.13558,-4.069881 4.16146,0.01631 11.82836,4.069881 11.82836,4.069881 l 2.76507,31.932906 24.25654,20.639089 21.52072,7.85007 -3.0723,4.38295 -23.96393,-4.69602 -30.10854,-12.83577 c 0,0 -14.83675,-8.262665 -17.81934,-15.653385 -3.94617,-9.778433 2.45784,-31.61984 2.45784,-31.61984 z"
         id="path23611"
         sodipodi:nodetypes="cacccccccsc" />
    </g>
    <path
       style="fill:none;stroke:#000000;stroke-width:0.264583px;stroke-linecap:butt;stroke-linejoin:miter;stroke-opacity:1"
       d="M 247.45386,100.75303 Z"
       id="path911" />
    <path
       style="fill:none;stroke:#8ce2fe;stroke-width:2;stroke-linecap:round;stroke-linejoin:miter;stroke-miterlimit:4;stroke-dasharray:4,12;stroke-dashoffset:0;stroke-opacity:1"
       d="m 249.11463,92.172413 c 30.23895,36.564657 26.58193,63.494777 29.06338,80.270267"
       id="path913"
       sodipodi:nodetypes="cc" />
    <path
       style="fill:none;stroke:#8ce2fe;stroke-width:2;stroke-linecap:round;stroke-linejoin:miter;stroke-miterlimit:4;stroke-dasharray:4, 12;stroke-dashoffset:0;stroke-opacity:1"
       d="m 244.2282,95.609769 c 25.15009,40.234821 17.97177,66.446981 18.21811,83.403211"
       id="path5855"
       sodipodi:nodetypes="cc" />
    <path
       style="fill:none;stroke:#8ce2fe;stroke-width:2;stroke-linecap:round;stroke-linejoin:miter;stroke-miterlimit:4;stroke-dasharray:4, 12;stroke-dashoffset:0;stroke-opacity:1"
       d="m 255.5823,88.071937 c 34.8451,32.205393 34.81213,59.382663 39.50859,75.677393"
       id="path5857"
       sodipodi:nodetypes="cc" />
  </g>
</svg>
